<svg width="241" height="126" viewBox="0 0 241 126" fill="none" xmlns="http://www.w3.org/2000/svg">
<g opacity="0.8">
<path opacity="0.8" d="M103.48 125.805L29.4683 86.9957L166.988 13.7734L241 52.5913L103.48 125.805Z" fill="#B3B3B3"/>
</g>
<path d="M198.2 15.2066C183.852 6.11895 160.017 6.09452 142.762 15.1496L84.7268 45.9303C82.3327 47.1843 78.6928 46.7853 76.6244 45.0427L55.8108 27.3316C52.3826 24.1395 45.3796 26.0776 40.1762 31.6718C34.9646 37.2661 33.5233 44.3831 36.9515 47.5752L36.8538 47.4286L62.138 80.0252C66.2746 85.3589 74.5235 87.1097 80.468 83.9095L82.3001 82.8916L97.3811 102.337C101.518 107.671 109.767 109.422 115.711 106.221L192.378 64.8548C204.071 58.723 211.025 49.1794 211.457 38.6749C211.84 29.3266 207.011 20.7764 198.208 15.1984L198.2 15.2066ZM119.97 68.2423C117.576 69.4963 113.936 69.0973 111.868 67.3547L111.249 66.8254L118.04 63.0551L157.135 42.5428C162.346 39.8067 168.983 39.0169 174.235 39.4322L119.97 68.2423Z" fill="#FD6B4B" stroke="#262626" stroke-miterlimit="10"/>
<path d="M82.3002 82.8997L72.097 69.7487L72.1947 69.8953C68.7665 66.7032 70.2078 59.578 75.4193 53.9838C80.6228 48.3976 87.6258 46.4514 91.054 49.6435L111.249 66.8253" stroke="#262626" stroke-miterlimit="10"/>
<path d="M175.676 27.2013C177.842 28.5774 179.031 30.6783 178.942 32.9828C178.836 35.5723 177.126 37.9257 174.243 39.4321" stroke="#262626" stroke-miterlimit="10"/>
<path d="M15.5108 32.7711L30.3881 40.5722V55.2378L26.0886 57.4934L11.2031 49.6842V35.0267L15.5108 32.7711Z" fill="#FD6B4B" stroke="#262626" stroke-miterlimit="10"/>
<path d="M25.0958 48.08V43.1127L18.9233 39.8799V44.8391L25.0958 48.08Z" stroke="#262626" stroke-width="0.15" stroke-miterlimit="10"/>
<path d="M11.2031 35.0267L26.0886 42.8278V57.4934" stroke="#262626" stroke-width="0.15" stroke-miterlimit="10"/>
<path d="M26.0889 42.8277L30.3884 40.5721" stroke="#262626" stroke-width="0.15" stroke-miterlimit="10"/>
<path d="M18.2068 42.5753C17.9381 43.471 17.1482 43.8212 16.4479 43.3407C15.7476 42.8603 15.3974 41.7365 15.6662 40.8327C15.9349 39.9288 16.7248 39.5868 17.4251 40.0672C18.1254 40.5477 18.4755 41.6714 18.2149 42.5753H18.2068Z" stroke="#262626" stroke-width="0.15" stroke-miterlimit="10"/>
<path d="M14.9739 40.7513C14.7052 41.6471 13.9153 41.9972 13.215 41.5168C12.5147 41.0363 12.1645 39.9126 12.4333 39.0087C12.702 38.1048 13.4918 37.7628 14.1921 38.2433C14.8924 38.7237 15.2426 39.8474 14.982 40.7513H14.9739Z" stroke="#262626" stroke-width="0.15" stroke-miterlimit="10"/>
<path d="M84.1404 106.058C83.7658 106.058 83.3912 105.953 83.0574 105.741L47.8142 83.429C46.8615 82.8264 46.5847 81.5724 47.1791 80.6196C47.7817 79.6669 49.0439 79.39 49.9885 79.9926L85.2316 102.305C86.1843 102.907 86.4612 104.161 85.8667 105.114C85.4759 105.725 84.8163 106.058 84.1486 106.058H84.1404Z" fill="#FD6B4B" stroke="#262626" stroke-width="0.5" stroke-miterlimit="10"/>
<path d="M52.4884 83.5104C51.3647 83.5104 50.4526 82.5984 50.4526 81.4746V69.9033C50.4526 68.7796 51.3647 67.8676 52.4884 67.8676C53.6121 67.8676 54.5242 68.7796 54.5242 69.9033V81.4746C54.5242 82.5984 53.6121 83.5104 52.4884 83.5104V83.5104Z" fill="#FD6B4B" stroke="#262626" stroke-width="0.5" stroke-miterlimit="10"/>
<path d="M81.3229 102.158C80.1991 102.158 79.2871 101.246 79.2871 100.122V88.551C79.2871 87.4272 80.1991 86.5152 81.3229 86.5152C82.4466 86.5152 83.3586 87.4272 83.3586 88.551V100.122C83.3586 101.246 82.4466 102.158 81.3229 102.158Z" fill="#FD6B4B" stroke="#262626" stroke-width="0.5" stroke-miterlimit="10"/>
<path d="M55.8188 27.3316C59.247 30.5236 57.8057 37.6488 52.6023 43.2349C47.3907 48.8211 40.3959 50.7672 36.9676 47.5752C33.5394 44.3831 34.9807 37.2579 40.1923 31.6718C45.3957 26.0857 52.3987 24.1395 55.8269 27.3316H55.8188Z" stroke="#262626" stroke-width="0.25" stroke-miterlimit="10"/>
<path d="M53.1404 27.7713C55.9009 30.3445 54.5736 36.2564 50.1763 40.9712C45.7791 45.6942 39.9731 47.4368 37.2126 44.8636C34.4521 42.2904 35.7794 36.3867 40.1848 31.6555C44.582 26.9326 50.3799 25.19 53.1404 27.7632V27.7713Z" stroke="#262626" stroke-width="0.25" stroke-miterlimit="10"/>
<path d="M46.5688 73.4864L53.808 69.594C56.4626 67.884 55.8275 62.8516 52.3911 58.3485C48.9547 53.8454 44.248 51.777 41.4224 53.2916L37.1798 55.5717C34.2972 57.0863 34.0529 62.3223 36.6424 67.257C39.2319 72.1998 43.678 74.9766 46.5607 73.462" fill="#FD6B4B"/>
<path d="M46.5688 73.4864L53.808 69.594C56.4626 67.884 55.8275 62.8516 52.3911 58.3485C48.9547 53.8454 44.248 51.777 41.4224 53.2916L37.1798 55.5717C34.2972 57.0863 34.0529 62.3223 36.6424 67.257C39.2319 72.1998 43.678 74.9766 46.5607 73.462" stroke="#262626" stroke-width="0.5" stroke-miterlimit="10"/>
<path d="M46.5605 73.4701C43.6698 74.9847 39.2318 72.2079 36.6423 67.2651C34.0528 62.3223 34.289 57.0944 37.1797 55.5798C40.0705 54.0652 44.5085 56.842 47.098 61.7848C49.6956 66.7277 49.4513 71.9555 46.5605 73.4701Z" stroke="#262626" stroke-width="0.25" stroke-miterlimit="10"/>
<path d="M36.0805 68.4458L36.4795 68.2259L36.6017 67.6477L36.1701 66.8579L35.6164 66.6543L35.2255 66.866L35.0952 67.4442L35.5268 68.234L36.0805 68.4458Z" fill="#FD6B4B" stroke="#262626" stroke-width="0.15" stroke-miterlimit="10"/>
<path d="M36.0806 68.4458L36.2109 67.8595L35.7793 67.0696L35.2256 66.866" stroke="#262626" stroke-width="0.15" stroke-miterlimit="10"/>
<path d="M36.4632 60.7913C34.7939 61.6708 34.6555 64.7 36.1538 67.5582C37.6522 70.4164 40.2335 72.0287 41.9028 71.1493L44.3539 69.8301C46.0313 68.9506 46.1698 65.9214 44.6633 63.0632C43.165 60.205 40.5918 58.5927 38.9225 59.4721L36.4632 60.7913Z" fill="#FD6B4B" stroke="#262626" stroke-width="0.5" stroke-miterlimit="10"/>
<path d="M41.8945 71.1493C43.5638 70.2699 43.7104 67.2407 42.204 64.3825C40.7056 61.5243 38.1324 59.9119 36.455 60.7914C34.7856 61.6708 34.6472 64.7 36.1455 67.5582C37.6438 70.4165 40.2252 72.0288 41.8945 71.1493Z" stroke="#262626" stroke-width="0.15" stroke-miterlimit="10"/>
<path d="M37.9289 58.723L38.6944 58.3484L39.1748 59.3093L36.7482 60.7343L35.9827 61.1089L35.4941 60.148L37.9289 58.723Z" fill="#FD6B4B" stroke="#262626" stroke-width="0.15" stroke-miterlimit="10"/>
<path d="M36.7482 60.7425L36.2595 59.7816L35.4941 60.1481L35.9827 61.1089L36.7482 60.7344" stroke="#262626" stroke-width="0.15" stroke-miterlimit="10"/>
<path d="M43.7591 70.107L44.5164 69.7894L45.005 70.7829L42.5784 72.0532L41.8211 72.3707L41.3325 71.3773L43.7591 70.107Z" stroke="#262626" stroke-width="0.15" stroke-miterlimit="10"/>
<path d="M42.5784 72.0532L42.098 71.0598L41.3325 71.3774L41.8211 72.3708L42.5784 72.0532Z" stroke="#262626" stroke-width="0.15" stroke-miterlimit="10"/>
<path d="M46.1528 63.0063L45.1024 61.0764L42.2279 62.6399L41.4136 63.0796L42.4641 65.0095L43.2784 64.5698L46.1528 63.0063Z" fill="#FD6B4B" stroke="#262626" stroke-width="0.15" stroke-miterlimit="10"/>
<path d="M42.2132 62.6003L41.4053 63.0407L42.4574 64.9712L43.2654 64.5309L42.2132 62.6003Z" stroke="#262626" stroke-width="0.15" stroke-miterlimit="10"/>
<path d="M41.528 74.1053C40.6079 74.1053 39.5981 73.7795 38.5802 73.1444C37.0005 72.1591 35.5592 70.5223 34.5169 68.5354C32.2775 64.2603 32.5707 59.8468 35.1765 58.4706C37.7904 57.1026 41.5932 59.3745 43.8325 63.6414C46.0719 67.9084 45.7868 72.3301 43.1729 73.7062C42.6681 73.975 42.1143 74.1053 41.528 74.1053V74.1053ZM36.8213 59.1953C36.4223 59.1953 36.0396 59.2768 35.7057 59.4559C33.7188 60.4982 33.6293 64.415 35.5184 68.0061C36.4712 69.822 37.7741 71.304 39.1828 72.1916C40.502 73.0141 41.7316 73.2014 42.6599 72.7128C44.6468 71.6705 44.7364 67.7537 42.8553 64.1626C41.2919 61.1822 38.7757 59.1953 36.8295 59.1953H36.8213Z" fill="#FD6B4B" stroke="#262626" stroke-width="0.35" stroke-miterlimit="10"/>
<path d="M36.0805 61.7278L36.4795 61.5161L36.6017 60.9379L36.1701 60.148L35.6164 59.9363L35.2255 60.1562L35.0952 60.7343L35.5268 61.5242L36.0805 61.7278Z" fill="#FD6B4B" stroke="#262626" stroke-width="0.15" stroke-miterlimit="10"/>
<path d="M36.0806 61.7278L36.2109 61.1496L35.7793 60.3597L35.2256 60.1562" stroke="#262626" stroke-width="0.15" stroke-miterlimit="10"/>
<path d="M42.4399 64.7245L42.8389 64.5046L42.9611 63.9264L42.5295 63.1366L41.9758 62.933L41.5849 63.1447L41.4546 63.7229L41.8862 64.5127L42.4399 64.7245Z" fill="#FD6B4B" stroke="#262626" stroke-width="0.15" stroke-miterlimit="10"/>
<path d="M42.4405 64.7245L42.5707 64.1463L42.1392 63.3565L41.5854 63.1447" stroke="#262626" stroke-width="0.15" stroke-miterlimit="10"/>
<path d="M36.7886 63.7392C35.9905 64.1545 35.9254 65.604 36.642 66.972C37.3586 68.34 38.5882 69.1055 39.3862 68.6902L39.8585 68.4377C40.6565 68.0224 40.7217 66.573 40.0051 65.2049C39.2885 63.8369 38.0589 63.0715 37.2609 63.4868L36.7886 63.7392Z" fill="#FD6B4B" stroke="#262626" stroke-width="0.15" stroke-miterlimit="10"/>
<path d="M36.7891 63.7392C37.5871 63.3239 38.8167 64.0893 39.5333 65.4574C40.2499 66.8254 40.1847 68.2749 39.3867 68.6902L39.859 68.4377C40.657 68.0224 40.7222 66.573 40.0056 65.2049C39.289 63.8369 38.0594 63.0715 37.2614 63.4868L36.7891 63.7392Z" stroke="#262626" stroke-width="0.15" stroke-miterlimit="10"/>
<path d="M42.0981 72.6069L42.4971 72.3952L42.6193 71.8171L42.1877 71.0272L41.634 70.8155L41.235 71.0353L41.1128 71.6135L41.5444 72.4034L42.0981 72.6069Z" fill="#FD6B4B" stroke="#262626" stroke-width="0.15" stroke-miterlimit="10"/>
<path d="M42.098 72.607L42.2201 72.0289L41.7967 71.239L41.2349 71.0354" stroke="#262626" stroke-width="0.15" stroke-miterlimit="10"/>
<path d="M81.8119 95.7984L89.0511 91.906C91.7058 90.196 91.0706 85.1636 87.6342 80.6605C84.1979 76.1574 79.4912 74.089 76.6656 75.6036L72.423 77.8837C69.5404 79.3983 69.2961 84.6343 71.8856 89.569C74.4751 94.5118 78.9212 97.2886 81.8038 95.774" fill="#FD6B4B"/>
<path d="M81.8119 95.7984L89.0511 91.906C91.7058 90.196 91.0706 85.1636 87.6342 80.6605C84.1979 76.1574 79.4912 74.089 76.6656 75.6036L72.423 77.8837C69.5404 79.3983 69.2961 84.6343 71.8856 89.569C74.4751 94.5118 78.9212 97.2886 81.8038 95.774" stroke="#262626" stroke-width="0.5" stroke-miterlimit="10"/>
<path d="M81.8033 95.7821C78.9125 97.2967 74.4745 94.5199 71.885 89.5771C69.2955 84.6343 69.5317 79.4064 72.4224 77.8918C75.3132 76.3772 79.7512 79.154 82.3407 84.0968C84.9383 89.0397 84.694 94.2675 81.8033 95.7821Z" stroke="#262626" stroke-width="0.25" stroke-miterlimit="10"/>
<path d="M71.3232 90.7579L71.7222 90.5381L71.8443 89.9599L71.4128 89.17L70.8591 88.9665L70.4682 89.1782L70.3379 89.7563L70.7694 90.5462L71.3232 90.7579Z" fill="#FD6B4B" stroke="#262626" stroke-width="0.15" stroke-miterlimit="10"/>
<path d="M71.3233 90.758L71.4536 90.1798L71.022 89.3899L70.4683 89.1782" stroke="#262626" stroke-width="0.15" stroke-miterlimit="10"/>
<path d="M71.7059 83.1034C70.0366 83.9828 69.8982 87.012 71.3965 89.8703C72.8948 92.7285 75.4762 94.3408 77.1455 93.4613L79.5966 92.1422C81.274 91.2627 81.4125 88.2335 79.906 85.3753C78.4077 82.5171 75.8345 80.9048 74.1652 81.7842L71.7059 83.1034Z" fill="#FD6B4B" stroke="#262626" stroke-width="0.5" stroke-miterlimit="10"/>
<path d="M77.1377 93.4695C78.807 92.59 78.9536 89.5608 77.4471 86.7026C75.9488 83.8444 73.3756 82.2321 71.6981 83.1115C70.0288 83.991 69.8904 87.0202 71.3887 89.8784C72.887 92.7366 75.4684 94.3489 77.1377 93.4695Z" stroke="#262626" stroke-width="0.15" stroke-miterlimit="10"/>
<path d="M73.1721 81.0351L73.9375 80.6686L74.418 81.6295L71.9913 83.0546L71.2259 83.421L70.7373 82.4601L73.1721 81.0351Z" fill="#FD6B4B" stroke="#262626" stroke-width="0.15" stroke-miterlimit="10"/>
<path d="M71.9913 83.0546L71.5028 82.0937L70.7373 82.4683L71.2259 83.421L71.9913 83.0546Z" stroke="#262626" stroke-width="0.15" stroke-miterlimit="10"/>
<path d="M79.0023 92.4272L79.7596 92.1096L80.2482 93.0949L77.8216 94.3652L77.0643 94.6828L76.5757 93.6894L79.0023 92.4272Z" stroke="#262626" stroke-width="0.15" stroke-miterlimit="10"/>
<path d="M77.8216 94.3652L77.3411 93.3718L76.5757 93.6893L77.0643 94.6828L77.8216 94.3652Z" stroke="#262626" stroke-width="0.15" stroke-miterlimit="10"/>
<path d="M81.3965 85.3183L80.346 83.3884L77.4715 84.9518L76.6572 85.3997L77.7077 87.3296L78.522 86.8817L81.3965 85.3183Z" fill="#FD6B4B" stroke="#262626" stroke-width="0.15" stroke-miterlimit="10"/>
<path d="M77.4515 84.9106L76.6436 85.3509L77.6957 87.2815L78.5036 86.8411L77.4515 84.9106Z" stroke="#262626" stroke-width="0.15" stroke-miterlimit="10"/>
<path d="M76.7712 96.4173C75.851 96.4173 74.8413 96.0915 73.8234 95.4564C72.2437 94.4711 70.8023 92.8343 69.76 90.8474C67.5207 86.5723 67.8138 82.1588 70.4196 80.7826C73.0335 79.4146 76.8363 81.6865 79.0757 85.9534C81.315 90.2204 81.03 94.6421 78.4161 96.0183C77.9112 96.287 77.3575 96.4173 76.7712 96.4173ZM72.0645 81.5073C71.6655 81.5073 71.2828 81.5888 70.9489 81.7679C68.962 82.8102 68.8725 86.727 70.7617 90.3181C71.7144 92.134 73.0173 93.6161 74.426 94.5036C75.7452 95.3261 76.9748 95.5134 77.9031 95.0248C79.89 93.9825 79.9795 90.0657 78.0985 86.4746C76.535 83.4942 74.0189 81.5073 72.0727 81.5073H72.0645Z" fill="#FD6B4B" stroke="#262626" stroke-width="0.35" stroke-miterlimit="10"/>
<path d="M71.3232 84.0479L71.7222 83.8281L71.8443 83.2499L71.4128 82.46L70.8591 82.2565L70.4682 82.4682L70.3379 83.0463L70.7694 83.8362L71.3232 84.0479Z" fill="#FD6B4B" stroke="#262626" stroke-width="0.15" stroke-miterlimit="10"/>
<path d="M71.3233 84.048L71.4536 83.4617L71.022 82.6799L70.4683 82.4682" stroke="#262626" stroke-width="0.15" stroke-miterlimit="10"/>
<path d="M77.6831 87.0365L78.0821 86.8248L78.2042 86.2385L77.7726 85.4567L77.2189 85.245L76.828 85.4567L76.6978 86.043L77.1293 86.8248L77.6831 87.0365Z" fill="#FD6B4B" stroke="#262626" stroke-width="0.15" stroke-miterlimit="10"/>
<path d="M77.6832 87.0365L77.8135 86.4584L77.3818 85.6685L76.8281 85.4568" stroke="#262626" stroke-width="0.15" stroke-miterlimit="10"/>
<path d="M72.0318 86.0594C71.2337 86.4747 71.1686 87.9241 71.8851 89.2922C72.6017 90.6602 73.8314 91.4257 74.6294 91.0104L75.1017 90.7579C75.8997 90.3426 75.9648 88.8932 75.2482 87.5251C74.5316 86.1571 73.302 85.3917 72.504 85.8069L72.0318 86.0594Z" fill="#FD6B4B" stroke="#262626" stroke-width="0.15" stroke-miterlimit="10"/>
<path d="M72.0317 86.0513C72.8298 85.636 74.0594 86.4014 74.7759 87.7694C75.4925 89.1375 75.4274 90.5869 74.6294 91.0022L75.1016 90.7498C75.8997 90.3345 75.9648 88.885 75.2482 87.517C74.5316 86.149 73.302 85.3835 72.504 85.7988L72.0317 86.0513Z" stroke="#262626" stroke-width="0.15" stroke-miterlimit="10"/>
<path d="M77.3412 94.9271L77.7321 94.7072L77.8624 94.129L77.4308 93.3392L76.8771 93.1356L76.4781 93.3473L76.356 93.9255L76.7875 94.7153L77.3412 94.9271Z" fill="#FD6B4B" stroke="#262626" stroke-width="0.15" stroke-miterlimit="10"/>
<path d="M77.3412 94.927L77.4634 94.3407L77.0317 93.5508L76.478 93.3472" stroke="#262626" stroke-width="0.15" stroke-miterlimit="10"/>
<path d="M91.0625 49.6435C94.4907 52.8356 93.0494 59.9607 87.8459 65.5469C82.6344 71.133 75.6395 73.0792 72.2113 69.8871C68.7831 66.695 70.2244 59.5699 75.4359 53.9838C80.6394 48.3976 87.6424 46.4514 91.0706 49.6435H91.0625Z" stroke="#262626" stroke-width="0.25" stroke-miterlimit="10"/>
<path d="M88.3826 50.0914C91.1431 52.6646 89.8158 58.5764 85.4185 63.2912C81.0213 68.0142 75.2153 69.7568 72.4548 67.1836C69.6943 64.6104 71.0216 58.7067 75.427 53.9756C79.8243 49.2526 85.6221 47.51 88.3826 50.0832V50.0914Z" stroke="#262626" stroke-width="0.25" stroke-miterlimit="10"/>
<path d="M76.5754 52.8356L56.6738 39.937L55.5012 40.2139L52.4883 51.6711L70.4925 63.332C70.973 60.3191 72.6667 56.9316 75.4191 53.9756C75.5901 53.7965 75.7611 53.6336 75.9321 53.4545C76.1438 53.2428 76.3555 53.031 76.5672 52.8275L76.5754 52.8356Z" fill="#FD6B4B" stroke="#262626" stroke-miterlimit="10"/>
<path d="M55.5015 40.222L75.9405 53.4626" stroke="#262626" stroke-width="0.15" stroke-miterlimit="10"/>
<path d="M62.3985 51.9887C61.9669 53.4219 60.7047 53.9675 59.5891 53.2102C58.4735 52.4447 57.9117 50.6533 58.3432 49.2201C58.7667 47.7869 60.0289 47.2413 61.1445 47.9986C62.26 48.7641 62.8219 50.5556 62.3985 51.9887Z" stroke="#262626" stroke-width="0.15" stroke-miterlimit="10"/>
<path d="M70.0694 56.7932C69.6378 58.2263 68.3837 58.7719 67.26 58.0146C66.1444 57.2492 65.5826 55.4577 66.0141 54.0245C66.4376 52.5913 67.6998 52.0458 68.8154 52.8031C69.9309 53.5685 70.4928 55.36 70.0612 56.7932H70.0694Z" stroke="#262626" stroke-width="0.15" stroke-miterlimit="10"/>
<path d="M63.2289 36.1586L74.0673 43.1861L73.3751 50.9301L72.5934 51.2966L59.4668 42.7952L62.496 36.3378L63.2289 36.1586Z" fill="#FD6B4B" stroke="#262626" stroke-miterlimit="10"/>
<path d="M72.5935 51.2965L73.3345 43.3571L62.4961 36.3378" stroke="#262626" stroke-width="0.15" stroke-miterlimit="10"/>
<path d="M65.8674 43.007C65.5987 43.9027 64.8088 44.2529 64.1085 43.7724C63.4082 43.292 63.0581 42.1683 63.3268 41.2644C63.5955 40.3605 64.3854 40.0185 65.0857 40.4989C65.786 40.9794 66.1362 42.1031 65.8756 43.007H65.8674Z" stroke="#262626" stroke-width="0.15" stroke-miterlimit="10"/>
<path d="M64.589 42.1356L64.418 40.9223" stroke="#262626" stroke-width="0.15" stroke-miterlimit="10"/>
<path d="M70.6877 46.028C70.419 46.9238 69.6292 47.2739 68.9289 46.7935C68.2286 46.313 67.8784 45.1893 68.1471 44.2854C68.4158 43.3897 69.2057 43.0395 69.906 43.52C70.6063 44.0004 70.9565 45.1241 70.6877 46.028Z" stroke="#262626" stroke-width="0.15" stroke-miterlimit="10"/>
<path d="M69.4098 45.1567L69.2388 43.9434" stroke="#262626" stroke-width="0.15" stroke-miterlimit="10"/>
<path d="M107.332 107.011C113.325 106.645 119.481 99.9676 121.884 90.6763C124.172 81.7923 122.307 73.3398 117.706 69.7976" stroke="#262626" stroke-width="0.25" stroke-miterlimit="10"/>
<path d="M185.439 22.4294L126.288 53.1206C126.044 53.2509 125.783 53.3079 125.523 53.3079C124.928 53.3079 124.35 52.9821 124.057 52.4203C123.634 51.6141 123.943 50.6125 124.757 50.1891L181.115 20.9637" fill="#FD6B4B"/>
<path d="M185.439 22.4294L126.288 53.1206C126.044 53.2509 125.783 53.3079 125.523 53.3079C124.928 53.3079 124.35 52.9821 124.057 52.4203C123.634 51.6141 123.943 50.6125 124.757 50.1891L181.115 20.9637" stroke="#262626" stroke-miterlimit="10"/>
<path d="M166.98 13.2604L109.327 43.1616C109.082 43.2919 108.83 43.3489 108.569 43.3489C107.983 43.3489 107.413 43.0314 107.128 42.4776C106.713 41.6796 107.014 40.6943 107.812 40.279L162.713 11.8191" fill="#FD6B4B"/>
<path d="M166.98 13.2604L109.327 43.1616C109.082 43.2919 108.83 43.3489 108.569 43.3489C107.983 43.3489 107.413 43.0314 107.128 42.4776C106.713 41.6796 107.014 40.6943 107.812 40.279L162.713 11.8191" stroke="#262626" stroke-miterlimit="10"/>
<path d="M175.75 17.169L117.51 47.3797C117.266 47.51 117.006 47.567 116.745 47.567C116.151 47.567 115.572 47.2413 115.279 46.6794C114.856 45.8733 115.165 44.8717 115.98 44.4482L171.426 15.7033" fill="#FD6B4B"/>
<path d="M175.75 17.169L117.51 47.3797C117.266 47.51 117.006 47.567 116.745 47.567C116.151 47.567 115.572 47.2413 115.279 46.6794C114.856 45.8733 115.165 44.8717 115.98 44.4482L171.426 15.7033" stroke="#262626" stroke-miterlimit="10"/>
<path d="M134.807 59.464C134.22 59.464 133.65 59.1464 133.365 58.5927C132.95 57.7947 133.251 56.8094 134.049 56.3941L191.205 26.7534L156.19 8.39081L97.0392 39.0819C96.2412 39.4972 95.2558 39.196 94.8405 38.3979C94.4253 37.5999 94.7266 36.6146 95.5246 36.1993L155.425 5.1173C155.897 4.86487 156.467 4.86487 156.939 5.1173L195.464 25.3202C196.002 25.6052 196.335 26.1589 196.335 26.7615C196.335 27.3641 196.002 27.926 195.464 28.2028L135.556 59.2848C135.311 59.4151 135.059 59.4721 134.798 59.4721L134.807 59.464Z" fill="#FD6B4B" stroke="#262626" stroke-miterlimit="10"/>
<path d="M103.602 43.3571C103.301 43.3571 102.999 43.2838 102.723 43.1209L37.5374 4.77533C36.886 4.39261 35.5994 4.36004 34.9317 4.71019L4.51738 20.6543C3.6705 21.094 2.6282 20.7683 2.18033 19.9214C1.73246 19.0745 2.0582 18.0241 2.91322 17.5843L33.3193 1.64026C35.0457 0.73638 37.6107 0.793382 39.2882 1.78683L104.473 40.1324C105.296 40.621 105.573 41.6796 105.092 42.5021C104.766 43.0558 104.188 43.3571 103.594 43.3571H103.602Z" fill="#FD6B4B" stroke="#262626" stroke-miterlimit="10"/>
<path d="M136.117 60.5145C135.816 60.5145 135.515 60.433 135.238 60.2783L70.0526 21.9327C69.4011 21.55 68.1146 21.5174 67.4468 21.8676L37.0325 37.8117C36.1856 38.2514 35.1433 37.9257 34.6955 37.0788C34.2476 36.2319 34.5733 35.1815 35.4284 34.7417L65.8345 18.7976C67.5608 17.8938 70.1259 17.9508 71.8033 18.9442L136.988 57.2898C137.811 57.7784 138.088 58.837 137.607 59.6595C137.29 60.205 136.712 60.5145 136.109 60.5145H136.117Z" fill="#FD6B4B" stroke="#262626" stroke-width="0.5" stroke-miterlimit="10"/>
<path d="M3.60579 2.90244L1 4.27047V22.5679L51.0472 48.8129L53.653 47.4449V29.1556L3.60579 2.90244Z" fill="#FD6B4B" stroke="#262626" stroke-miterlimit="10"/>
<path d="M51.0469 30.5155L53.6527 29.1556" stroke="#262626" stroke-width="0.25" stroke-miterlimit="10"/>
<path d="M51.0472 48.8129V30.5155L1 4.27048" stroke="#262626" stroke-width="0.25" stroke-miterlimit="10"/>
</svg>
