<svg width="201" height="174" viewBox="0 0 201 174" fill="none" xmlns="http://www.w3.org/2000/svg">
<path opacity="0.8" d="M200.12 136.969L130.142 173.606L0.119629 100.291L40.1773 79.3003L70.097 63.5986L200.12 136.969Z" fill="#B3B3B3"/>
<path d="M169.211 93.3395C174.253 96.1693 174.472 105.373 169.692 113.89C164.911 122.407 156.944 127.009 151.902 124.18L148.839 122.449C143.797 119.619 143.577 110.415 148.358 101.898C153.139 93.3807 161.106 88.7787 166.148 91.6086L169.211 93.3395Z" fill="white" stroke="#1B1B1B" stroke-miterlimit="10"/>
<path d="M151.903 124.18C146.861 121.35 146.641 112.146 151.422 103.629C156.202 95.1116 164.17 90.5096 169.211 93.3395" stroke="#1B1B1B" stroke-width="0.25" stroke-miterlimit="10"/>
<path d="M164.293 98.0102L144.896 87.1166V78.9429L87.1313 46.427L79.5346 50.4107L66.9788 43.3498L38.3505 58.3646V96.2243L50.453 103.024H50.5079C50.2469 105.895 51.0299 108.286 52.857 109.316L109.99 141.475C111.831 142.505 114.304 141.928 116.625 140.183L135.665 150.871L164.293 135.856V97.9964V98.0102Z" fill="white" stroke="#1B1B1B" stroke-miterlimit="10"/>
<path d="M135.679 150.885V113.011L164.293 98.0103" stroke="#1B1B1B" stroke-width="0.25" stroke-miterlimit="10"/>
<path d="M117.12 140.458V102.599L145.748 87.5838" stroke="#1B1B1B" stroke-width="0.5" stroke-miterlimit="10"/>
<path d="M56.1816 92.2406V71.7447" stroke="#1B1B1B" stroke-width="0.5" stroke-miterlimit="10"/>
<path d="M56.1816 71.7445V67.7745L65.5504 62.8703" stroke="#1B1B1B" stroke-width="0.25" stroke-miterlimit="10"/>
<path d="M113.947 104.261L120.856 100.634" stroke="#1B1B1B" stroke-width="0.25" stroke-miterlimit="10"/>
<path d="M117.12 102.598L135.679 113.011" stroke="#1B1B1B" stroke-width="0.25" stroke-miterlimit="10"/>
<path d="M38.3505 58.3509L56.1814 67.7746" stroke="#1B1B1B" stroke-width="0.25" stroke-miterlimit="10"/>
<path d="M144.897 78.943L127.148 88.243" stroke="#1B1B1B" stroke-width="0.25" stroke-miterlimit="10"/>
<path d="M117.12 120.622L63.4625 90.4136C60.3716 88.6827 55.4949 91.4988 52.5689 96.719C51.3737 98.8482 50.6869 101.046 50.5083 103.024" stroke="#1B1B1B" stroke-width="0.5" stroke-miterlimit="10"/>
<path d="M79.5349 50.3971L69.3831 55.7271L63.0915 68.1181L56.1816 71.7447" stroke="#1B1B1B" stroke-width="0.5" stroke-miterlimit="10"/>
<path d="M110.004 141.475C106.913 139.744 106.79 134.112 109.716 128.891C111.68 125.388 114.524 122.971 117.12 122.284" stroke="#1B1B1B" stroke-width="0.25" stroke-miterlimit="10"/>
<path d="M127.147 88.2431L120.856 100.634L63.0908 68.1181" stroke="#1B1B1B" stroke-width="0.25" stroke-miterlimit="10"/>
<path d="M69.3826 55.7271L127.148 88.243" stroke="#1B1B1B" stroke-width="0.25" stroke-miterlimit="10"/>
<path d="M56.1816 71.7447L113.947 104.261V118.836" stroke="#1B1B1B" stroke-width="0.25" stroke-miterlimit="10"/>
<path d="M144.897 87.1166V88.037" stroke="#1B1B1B" stroke-width="0.25" stroke-miterlimit="10"/>
<path d="M149.292 75.7147V60.9747L89.9065 27.5658L87.3926 28.8846V43.6109L146.778 77.0197L149.292 75.7147Z" fill="white" stroke="#1B1B1B" stroke-miterlimit="10"/>
<path d="M146.778 62.2934L149.292 60.9747" stroke="#1B1B1B" stroke-width="0.25" stroke-miterlimit="10"/>
<path d="M87.3923 28.8845L146.778 62.2934" stroke="#1B1B1B" stroke-width="0.25" stroke-miterlimit="10"/>
<path d="M146.778 77.0197V62.2935" stroke="#1B1B1B" stroke-width="0.25" stroke-miterlimit="10"/>
<path d="M99.0139 52.8835L99.2337 35.7258L92.1865 31.7694L89.9886 32.9096L89.7825 50.0811L96.8159 54.0375L99.0139 52.8835Z" fill="white" stroke="#1B1B1B" stroke-miterlimit="10"/>
<path d="M97.0358 36.866L99.2337 35.7258" stroke="#1B1B1B" stroke-width="0.25" stroke-miterlimit="10"/>
<path d="M89.9885 32.9096L97.0357 36.8659" stroke="#1B1B1B" stroke-width="0.25" stroke-miterlimit="10"/>
<path d="M96.8164 54.0374L97.0362 36.8659" stroke="#1B1B1B" stroke-width="0.25" stroke-miterlimit="10"/>
<path d="M142.314 77.2533L142.534 60.0818L135.486 56.1255L133.302 57.2794L133.082 74.4509L140.13 78.3935L142.314 77.2533Z" fill="white" stroke="#1B1B1B" stroke-miterlimit="10"/>
<path d="M140.335 61.2358L142.533 60.0819" stroke="#1B1B1B" stroke-width="0.25" stroke-miterlimit="10"/>
<path d="M133.303 57.2794L140.336 61.2357" stroke="#1B1B1B" stroke-width="0.25" stroke-miterlimit="10"/>
<path d="M140.129 78.3935L140.335 61.2357" stroke="#1B1B1B" stroke-width="0.25" stroke-miterlimit="10"/>
<path d="M72.5421 53.5428V30.5056L62.143 25.148L45.0265 34.1184V57.1557L55.4256 62.5132L72.5421 53.5428Z" fill="white" stroke="#1B1B1B" stroke-miterlimit="10"/>
<path d="M55.4255 39.4759L72.5421 30.5056" stroke="#1B1B1B" stroke-width="0.25" stroke-miterlimit="10"/>
<path d="M45.0265 34.1185L55.4256 39.476" stroke="#1B1B1B" stroke-width="0.25" stroke-miterlimit="10"/>
<path d="M55.4255 62.5133V39.476" stroke="#1B1B1B" stroke-width="0.25" stroke-miterlimit="10"/>
<path d="M50.2466 35.7258L45.0265 33.0333V9.99597L62.143 1.01184L72.5421 6.36935V11.4109L67.3632 14.1171V26.7416L50.2466 35.7258Z" fill="white" stroke="#1B1B1B" stroke-miterlimit="10"/>
<path d="M55.4255 15.3535L72.5421 6.36938" stroke="#1B1B1B" stroke-width="0.25" stroke-miterlimit="10"/>
<path d="M45.0265 9.996L55.4256 15.3535" stroke="#1B1B1B" stroke-width="0.25" stroke-miterlimit="10"/>
<path d="M55.4255 20.3812V15.3534" stroke="#1B1B1B" stroke-width="0.25" stroke-miterlimit="10"/>
<path d="M50.2192 36.0967V17.7026L55.4257 20.3814L67.3633 14.1172" stroke="#1B1B1B" stroke-width="0.25" stroke-miterlimit="10"/>
<path d="M155.2 100.167V77.1435L144.801 71.7722L127.684 80.7564V103.794L138.083 109.151L155.2 100.167Z" fill="white" stroke="#1B1B1B" stroke-miterlimit="10"/>
<path d="M138.083 86.1139L155.199 77.1436" stroke="#1B1B1B" stroke-width="0.25" stroke-miterlimit="10"/>
<path d="M127.684 80.7564L138.083 86.1139" stroke="#1B1B1B" stroke-width="0.25" stroke-miterlimit="10"/>
<path d="M138.083 109.151V86.1138" stroke="#1B1B1B" stroke-width="0.25" stroke-miterlimit="10"/>
<path d="M150.322 55.5212L72.3224 11.5209L55.4394 20.3264L50.549 17.8675V21.81L133.206 68.4479L150.322 59.4637V55.5212Z" fill="white" stroke="#1B1B1B" stroke-miterlimit="10"/>
<path d="M133.206 68.4477V64.5052" stroke="#1B1B1B" stroke-width="0.25" stroke-miterlimit="10"/>
<path d="M150.322 55.5211L133.206 64.5052L50.549 17.8674" stroke="#1B1B1B" stroke-width="0.25" stroke-miterlimit="10"/>
<path d="M68.0913 15.3535C67.2808 15.8068 67.2396 17.3041 68.0089 18.6779C68.7782 20.0516 70.0695 20.7934 70.88 20.3401L71.3745 20.0653C72.185 19.612 72.2262 18.1146 71.4569 16.7409C70.6876 15.3672 69.3963 14.6254 68.5858 15.0787L68.0913 15.3535Z" fill="white" stroke="#1B1B1B" stroke-width="0.5" stroke-miterlimit="10"/>
<path d="M70.8938 20.34C71.7042 19.8867 71.7455 18.3893 70.9762 17.0156C70.2069 15.6419 68.9156 14.9001 68.1051 15.3534" stroke="#1B1B1B" stroke-width="0.25" stroke-miterlimit="10"/>
<path d="M115.595 48.7074C114.784 49.1607 114.743 50.6581 115.513 52.0318C116.282 53.4055 117.573 54.1473 118.384 53.694L118.878 53.4193C119.689 52.9659 119.73 51.4686 118.961 50.0949C118.191 48.7211 116.9 47.9793 116.09 48.4327L115.595 48.7074Z" fill="white" stroke="#1B1B1B" stroke-width="0.5" stroke-miterlimit="10"/>
<path d="M118.383 53.6939C119.194 53.2406 119.235 51.7432 118.466 50.3695C117.696 48.9958 116.405 48.254 115.595 48.7073" stroke="#1B1B1B" stroke-width="0.25" stroke-miterlimit="10"/>
<path d="M119.263 38.281L78.0372 6.71286L66.7452 12.6336V14.2546L107.971 45.8227L119.263 39.902V38.281Z" fill="white" stroke="#1B1B1B" stroke-width="0.5" stroke-miterlimit="10"/>
<path d="M119.263 38.2809L107.971 44.2017L66.7452 12.6336" stroke="#1B1B1B" stroke-width="0.25" stroke-miterlimit="10"/>
<path d="M107.97 45.8227V44.2017" stroke="#1B1B1B" stroke-width="0.25" stroke-miterlimit="10"/>
<path d="M145.775 52.7049L126.241 41.88L114.949 47.8007V49.4217L134.483 60.2466L145.775 54.3259V52.7049Z" fill="white" stroke="#1B1B1B" stroke-width="0.5" stroke-miterlimit="10"/>
<path d="M145.775 52.705L134.483 58.6257L114.949 47.8008" stroke="#1B1B1B" stroke-width="0.25" stroke-miterlimit="10"/>
<path d="M134.484 60.2465V58.6255" stroke="#1B1B1B" stroke-width="0.25" stroke-miterlimit="10"/>
<path d="M155.2 76.0444V53.0071L144.801 47.6496L127.684 56.6337V61.8264L133.206 64.5052V82.5146L138.083 85.0148L155.2 76.0444Z" fill="white" stroke="#1B1B1B" stroke-miterlimit="10"/>
<path d="M138.083 61.9913L155.199 53.0072" stroke="#1B1B1B" stroke-width="0.25" stroke-miterlimit="10"/>
<path d="M127.684 56.6338L138.083 61.9913" stroke="#1B1B1B" stroke-width="0.25" stroke-miterlimit="10"/>
<path d="M138.083 85.0148V61.9912" stroke="#1B1B1B" stroke-width="0.25" stroke-miterlimit="10"/>
</svg>
