<svg width="240" height="125" viewBox="0 0 240 125" fill="none" xmlns="http://www.w3.org/2000/svg">
<g clip-path="url(#clip0_158_13803)">
<path opacity="0.8" d="M95.9187 124.806L39 94.9537L144.755 38.649L201.673 68.5008L95.9187 124.806Z" fill="#B3B3B3"/>
<path d="M172.515 72.1384L105.422 107.356L62.8154 85.0182V57.474L72.4439 38.9444L144.186 1.30563L154.883 0.80545L164.512 5.79592L178.13 21.2334L185.076 45.3331L178.13 58.1901L172.56 61.1117L172.515 72.1384Z" fill="#FD6B4B" stroke="#262626" stroke-miterlimit="10"/>
<path d="M120.633 69.6034C121.269 71.8201 123.474 72.7636 125.521 71.6837L139.696 64.2378C141.743 63.1579 142.891 60.4637 142.254 58.247L139.423 49.6984C138.787 47.4817 136.582 46.5381 134.535 47.6181L120.371 55.064C118.325 56.1439 117.177 58.8381 117.813 61.0548L120.644 69.6034H120.633Z" stroke="#262626" stroke-width="0.25" stroke-linecap="round" stroke-linejoin="round"/>
<path d="M152.496 52.995C153.133 55.2118 155.338 56.1553 157.384 55.0754L171.594 47.6181C173.64 46.5381 174.788 43.844 174.152 41.6272L171.321 33.0786C170.685 30.8619 168.479 29.9184 166.433 30.9983L152.223 38.4556C150.177 39.5356 149.029 42.2297 149.665 44.4465L152.496 52.995V52.995Z" stroke="#262626" stroke-width="0.25" stroke-linecap="round" stroke-linejoin="round"/>
<path d="M72.4438 38.9444L81.9359 38.8307L91.8259 43.9349L105.422 59.4178L112.368 83.5176" stroke="#262626" stroke-width="0.25" stroke-miterlimit="10"/>
<path d="M178.13 21.2333L105.422 59.4178" stroke="#262626" stroke-width="0.25" stroke-linecap="round" stroke-linejoin="round"/>
<path d="M172.56 61.1118L105.422 96.3861" stroke="#1B1B1B" stroke-width="0.5" stroke-miterlimit="10"/>
<path d="M112.367 83.5177L185.076 45.3332" stroke="#262626" stroke-width="0.25" stroke-linecap="round" stroke-linejoin="round"/>
<path d="M164.512 5.79593L91.8032 43.9804" stroke="#262626" stroke-width="0.25" stroke-linecap="round" stroke-linejoin="round"/>
<path d="M154.884 0.80545L82.1753 38.9899L62.8955 57.5081" stroke="#262626" stroke-width="0.25" stroke-linecap="round" stroke-linejoin="round"/>
<path d="M84.3799 63.5443V38.8534L80.026 36.6935L79.4917 36.9777V61.6572L83.8457 63.8285L84.3799 63.5443Z" fill="#FD6B4B" stroke="#262626" stroke-width="0.25" stroke-linecap="round" stroke-linejoin="round"/>
<path d="M94.4868 67.1935V42.514L90.1329 40.3427L89.5986 40.6269V65.3064L93.9525 67.4777L94.4868 67.1935Z" fill="#FD6B4B" stroke="#262626" stroke-width="0.25" stroke-linecap="round" stroke-linejoin="round"/>
<path d="M92.6436 49.221C92.8595 49.1186 92.8936 48.7094 92.7003 48.2888C92.5184 47.8796 92.1887 47.6181 91.9728 47.7204L89.0285 49.0277C88.8125 49.13 88.7784 49.5393 88.9716 49.9485C89.1535 50.3577 89.4832 50.6192 89.6992 50.5169L92.6436 49.2096V49.221Z" fill="#FD6B4B" stroke="#262626" stroke-width="0.25" stroke-linecap="round" stroke-linejoin="round"/>
<path d="M89.0283 49.0391C89.2443 48.9368 89.5739 49.1982 89.7672 49.6075C89.9491 50.0167 89.9263 50.4373 89.6989 50.5283C89.4829 50.6306 89.1533 50.3691 88.9714 49.9599C88.7895 49.5506 88.8123 49.13 89.0283 49.0391Z" fill="#F2F2F2"/>
<path d="M100.635 61.7142C100.839 61.6005 100.839 61.1913 100.635 60.782C100.419 60.3842 100.078 60.1568 99.8619 60.2705L97.0199 61.7938C96.8039 61.9074 96.8039 62.328 97.0199 62.7259C97.2359 63.1238 97.5768 63.3511 97.7928 63.2488L100.635 61.7256V61.7142Z" fill="#FD6B4B" stroke="#262626" stroke-width="0.25" stroke-linecap="round" stroke-linejoin="round"/>
<path d="M97.0199 61.7938C97.2245 61.6801 97.5768 61.9075 97.7928 62.3167C98.0088 62.7146 98.0088 63.1352 97.7928 63.2489C97.5768 63.3625 97.2359 63.1352 97.0199 62.726C96.8039 62.3281 96.8039 61.9188 97.0199 61.7938Z" fill="#F2F2F2"/>
<path d="M89.8809 47.5613C89.7331 47.2998 89.1987 47.3112 88.6986 47.5954C88.1984 47.8796 87.9142 48.3229 88.062 48.5844L97.1904 64.7267C97.3382 64.9881 97.8724 64.9768 98.3726 64.6926C98.8728 64.4084 99.157 63.965 99.0092 63.7036L89.8809 47.5613Z" fill="#FD6B4B" stroke="#262626" stroke-width="0.25" stroke-linecap="round" stroke-linejoin="round"/>
<path d="M97.1904 64.7267C97.0427 64.4652 97.3268 64.0105 97.827 63.7263C98.3272 63.4421 98.8501 63.4307 99.0093 63.6922" stroke="#262626" stroke-width="0.25" stroke-linecap="round" stroke-linejoin="round"/>
<path d="M92.8041 43.6279C93.02 43.5256 93.0541 43.1164 92.8722 42.6958C92.6903 42.2865 92.3606 42.0251 92.1446 42.1274L89.2004 43.4347C88.9844 43.537 88.9503 43.9462 89.1435 44.3555C89.3254 44.7647 89.6551 45.0262 89.8711 44.9239L92.8153 43.6166L92.8041 43.6279Z" fill="#FD6B4B" stroke="#262626" stroke-width="0.25" stroke-linecap="round" stroke-linejoin="round"/>
<path d="M89.1894 43.4461C89.4168 43.3438 89.7351 43.6053 89.9283 44.0145C90.1102 44.4237 90.0874 44.8443 89.8601 44.9353C89.6441 45.0376 89.3144 44.7761 89.1325 44.3669C88.9506 43.9577 88.9734 43.5371 89.1894 43.4461Z" fill="#F2F2F2"/>
<path d="M100.795 56.1212C101 56.0075 101 55.5982 100.795 55.189C100.579 54.7911 100.238 54.5638 100.022 54.6775L97.1801 56.2007C96.9641 56.3144 96.9641 56.735 97.1801 57.1329C97.396 57.5308 97.737 57.7581 97.953 57.6558L100.795 56.1325V56.1212Z" fill="#FD6B4B" stroke="#262626" stroke-width="0.25" stroke-linecap="round" stroke-linejoin="round"/>
<path d="M97.1698 56.2008C97.3858 56.0872 97.7267 56.3145 97.9427 56.7238C98.1587 57.1216 98.1587 57.5422 97.9427 57.6559C97.7267 57.7696 97.3858 57.5422 97.1698 57.133C96.9538 56.7351 96.9538 56.3259 97.1698 56.2008Z" fill="#F2F2F2"/>
<path d="M90.0415 41.9683C89.8937 41.7068 89.3594 41.7182 88.8592 42.0024C88.359 42.2866 88.0749 42.7299 88.2227 42.9914L97.3511 59.1336C97.4988 59.3951 98.033 59.3837 98.5332 59.0995C99.0334 58.8153 99.3177 58.372 99.1699 58.1105L90.0415 41.9683Z" fill="#FD6B4B" stroke="#262626" stroke-width="0.25" stroke-linecap="round" stroke-linejoin="round"/>
<path d="M97.3516 59.1335C97.2038 58.8721 97.4879 58.4174 97.9881 58.1332C98.4883 57.849 99.0226 57.8376 99.1704 58.0991" stroke="#262626" stroke-width="0.25" stroke-linecap="round" stroke-linejoin="round"/>
<path d="M81.8456 38.3874C82.0502 38.2624 82.4026 38.4783 82.6413 38.8762C82.88 39.2627 82.8914 39.6833 82.6868 39.797L79.913 41.4453C79.7084 41.5704 79.356 41.3544 79.1287 40.9679C78.8899 40.5814 78.8785 40.1608 79.0831 40.0357L81.857 38.3874H81.8456Z" fill="#FD6B4B" stroke="#262626" stroke-width="0.25" stroke-linecap="round" stroke-linejoin="round"/>
<path d="M79.9126 41.4454C80.1172 41.3203 80.0946 40.9111 79.8672 40.5246C79.6399 40.1381 79.2874 39.9221 79.0714 40.0358C78.8668 40.1608 78.8896 40.5701 79.1169 40.9679C79.3443 41.3544 79.6966 41.5704 79.9012 41.4454H79.9126Z" fill="#F2F2F2"/>
<path d="M66.3043 51.9832C66.0656 52.1651 65.5769 51.9491 65.2358 51.483C64.8834 51.0283 64.8038 50.5054 65.0425 50.3235L79.7865 39.0808C80.0253 38.8989 80.5142 39.1149 80.8552 39.5696C81.2076 40.0243 81.2871 40.5472 81.0483 40.7291L66.3043 51.9719V51.9832Z" fill="#FD6B4B" stroke="#262626" stroke-width="0.25" stroke-linecap="round" stroke-linejoin="round"/>
<path d="M79.7868 39.0807C79.5367 39.2626 79.6277 39.7856 79.9801 40.2403C80.3325 40.695 80.8098 40.9223 81.0486 40.7291" stroke="#262626" stroke-width="0.25" stroke-linecap="round" stroke-linejoin="round"/>
<path d="M81.8456 42.764C82.0502 42.6389 82.4026 42.8549 82.6413 43.2528C82.88 43.6393 82.8914 44.0599 82.6868 44.1736L79.913 45.8219C79.7084 45.9469 79.356 45.731 79.1287 45.3444C78.8899 44.9579 78.8785 44.5373 79.0831 44.4123L81.857 42.764H81.8456Z" fill="#FD6B4B" stroke="#262626" stroke-width="0.25" stroke-linecap="round" stroke-linejoin="round"/>
<path d="M79.9126 45.8219C80.1172 45.6969 80.0946 45.2876 79.8672 44.9011C79.6399 44.5146 79.2874 44.2986 79.0714 44.4123C78.8668 44.5373 78.8896 44.9466 79.1169 45.3444C79.3443 45.731 79.6966 45.9469 79.9012 45.8219H79.9126Z" fill="#F2F2F2"/>
<path d="M66.3043 56.3712C66.0656 56.5531 65.5769 56.3371 65.2358 55.871C64.8834 55.4163 64.8038 54.8934 65.0425 54.7115L79.7865 43.4688C80.0253 43.2869 80.5142 43.5029 80.8552 43.9576C81.2076 44.4123 81.2871 44.9352 81.0483 45.1171L66.3043 56.3599V56.3712Z" fill="#FD6B4B" stroke="#262626" stroke-width="0.25" stroke-linecap="round" stroke-linejoin="round"/>
<path d="M79.7868 43.4688C79.5367 43.6506 79.6277 44.1736 79.9801 44.6283C80.3325 45.083 80.8098 45.3103 81.0486 45.1171" stroke="#262626" stroke-width="0.25" stroke-linecap="round" stroke-linejoin="round"/>
<path d="M112.368 83.5176L105.422 96.386V107.356" stroke="#262626" stroke-width="0.25" stroke-linecap="round" stroke-linejoin="round"/>
<path d="M67.3065 62.3621L53.8584 69.1828V96.2382L71.9105 105.73L90.2922 115.393L103.513 108.459V81.3918L67.3065 62.3621Z" fill="#FD6B4B" stroke="#262626" stroke-miterlimit="10"/>
<path d="M53.8584 69.1829L90.2922 88.3262L103.513 81.3919" stroke="#262626" stroke-width="0.15" stroke-miterlimit="10"/>
<path d="M90.292 115.393V88.3262" stroke="#262626" stroke-width="0.15" stroke-miterlimit="10"/>
<path d="M67.3065 34.2269L53.8584 41.0476V68.1143L71.9105 77.6064L90.2922 87.269L103.513 80.3347V53.2679L67.3065 34.2269Z" fill="#FD6B4B" stroke="#262626" stroke-miterlimit="10"/>
<path d="M53.8584 41.0475L90.2922 60.2022L103.513 53.2679" stroke="#262626" stroke-width="0.15" stroke-miterlimit="10"/>
<path d="M90.292 87.269V60.2022" stroke="#262626" stroke-width="0.15" stroke-miterlimit="10"/>
<path d="M73.2632 51.2445V78.3113" stroke="#262626" stroke-width="0.15" stroke-miterlimit="10"/>
<path d="M75.2983 65.5792V72.434L80.3228 75.0713V68.2166L75.2983 65.5792Z" stroke="#262626" stroke-width="0.15" stroke-miterlimit="10"/>
<path d="M66.0332 60.657V67.5004L71.0578 70.1377V63.2943L66.0332 60.657Z" stroke="#262626" stroke-width="0.15" stroke-miterlimit="10"/>
<path d="M101.842 64.5448C101.842 65.3178 101.285 66.2386 100.603 66.591L93.2138 70.4674C92.5317 70.8198 91.9746 70.4902 91.9746 69.7172V62.4418C91.9746 61.6688 92.5317 60.748 93.2138 60.3956L100.603 56.5192C101.285 56.1668 101.842 56.4964 101.842 57.2694V64.5448V64.5448Z" stroke="#262626" stroke-width="0.15" stroke-miterlimit="10"/>
<path d="M94.4837 72.8902C94.7583 72.3116 94.6728 71.6964 94.2928 71.516C93.9128 71.3357 93.3821 71.6585 93.1075 72.237C92.833 72.8155 92.9184 73.4308 93.2984 73.6111C93.6784 73.7915 94.2091 73.4687 94.4837 72.8902Z" stroke="#262626" stroke-width="0.15" stroke-miterlimit="10"/>
<path d="M98.0589 71.1543C98.3335 70.5757 98.248 69.9605 97.868 69.7801C97.488 69.5998 96.9573 69.9226 96.6827 70.5011C96.4081 71.0796 96.4936 71.6949 96.8736 71.8752C97.2536 72.0556 97.7843 71.7328 98.0589 71.1543Z" stroke="#262626" stroke-width="0.15" stroke-miterlimit="10"/>
<path d="M101.639 69.3967C101.914 68.8182 101.828 68.2029 101.448 68.0226C101.068 67.8422 100.537 68.165 100.263 68.7435C99.9882 69.3221 100.074 69.9373 100.454 70.1177C100.834 70.298 101.364 69.9752 101.639 69.3967Z" stroke="#262626" stroke-width="0.15" stroke-miterlimit="10"/>
<path d="M94.4852 77.1248C94.7597 76.5463 94.6743 75.931 94.2943 75.7507C93.9142 75.5703 93.3836 75.8931 93.109 76.4716C92.8344 77.0502 92.9199 77.6654 93.2999 77.8457C93.6799 78.0261 94.2106 77.7033 94.4852 77.1248Z" stroke="#262626" stroke-width="0.15" stroke-miterlimit="10"/>
<path d="M98.0599 75.3774C98.3344 74.7989 98.249 74.1837 97.869 74.0033C97.489 73.8229 96.9583 74.1457 96.6837 74.7243C96.4091 75.3028 96.4946 75.918 96.8746 76.0984C97.2546 76.2787 97.7853 75.9559 98.0599 75.3774Z" stroke="#262626" stroke-width="0.15" stroke-miterlimit="10"/>
<path d="M101.63 73.6151C101.905 73.0365 101.819 72.4213 101.439 72.241C101.059 72.0606 100.529 72.3834 100.254 72.9619C99.9794 73.5405 100.065 74.1557 100.445 74.336C100.825 74.5164 101.356 74.1936 101.63 73.6151Z" stroke="#262626" stroke-width="0.15" stroke-miterlimit="10"/>
<path d="M94.4852 81.3479C94.7597 80.7693 94.6743 80.1541 94.2943 79.9737C93.9142 79.7934 93.3836 80.1162 93.109 80.6947C92.8344 81.2732 92.9199 81.8885 93.2999 82.0688C93.6799 82.2492 94.2106 81.9264 94.4852 81.3479Z" stroke="#262626" stroke-width="0.15" stroke-miterlimit="10"/>
<path d="M98.0511 79.5958C98.3257 79.0173 98.2402 78.402 97.8602 78.2217C97.4802 78.0413 96.9495 78.3641 96.6749 78.9426C96.4003 79.5212 96.4858 80.1364 96.8658 80.3168C97.2458 80.4971 97.7765 80.1743 98.0511 79.5958Z" stroke="#262626" stroke-width="0.15" stroke-miterlimit="10"/>
<path d="M101.642 77.8382C101.917 77.2597 101.831 76.6445 101.451 76.4641C101.071 76.2837 100.541 76.6065 100.266 77.1851C99.9916 77.7636 100.077 78.3788 100.457 78.5592C100.837 78.7395 101.368 78.4167 101.642 77.8382Z" stroke="#262626" stroke-width="0.15" stroke-miterlimit="10"/>
<path d="M94.6804 89.2924C94.1915 89.0196 93.4527 89.4061 93.0435 90.1564C92.6342 90.9067 92.691 91.7365 93.1799 92.0094L93.8733 92.3959C94.3621 92.6687 95.1009 92.2822 95.5102 91.5319C95.9194 90.7816 95.8626 89.9518 95.3738 89.6789L94.6804 89.2924Z" stroke="#262626" stroke-width="0.15" stroke-miterlimit="10"/>
<path d="M93.872 92.3845C93.3832 92.1116 93.315 91.2818 93.7356 90.5315C94.1562 89.7812 94.8837 89.3947 95.3725 89.6676" stroke="#262626" stroke-width="0.15" stroke-miterlimit="10"/>
<path d="M94.6804 93.6804C94.1915 93.4076 93.4527 93.7941 93.0435 94.5444C92.6342 95.2947 92.691 96.1245 93.1799 96.3974L93.8733 96.7839C94.3621 97.0567 95.1009 96.6702 95.5102 95.9199C95.9194 95.1696 95.8626 94.3398 95.3738 94.0669L94.6804 93.6804Z" stroke="#262626" stroke-width="0.15" stroke-miterlimit="10"/>
<path d="M93.872 96.7725C93.3832 96.4996 93.315 95.6698 93.7356 94.9195C94.1562 94.1692 94.8837 93.7827 95.3725 94.0556" stroke="#262626" stroke-width="0.15" stroke-miterlimit="10"/>
<path d="M94.6569 99.0347C94.4182 99.0347 94.2251 98.8415 94.2251 98.6028V95.9654C94.2251 95.7267 94.4182 95.5334 94.6569 95.5334C94.8957 95.5334 95.0889 95.7267 95.0889 95.9654V98.6028C95.0889 98.8415 94.8957 99.0347 94.6569 99.0347Z" fill="#FD6B4B" stroke="#262626" stroke-width="0.15" stroke-miterlimit="10"/>
</g>
<defs>
<clipPath id="clip0_158_13803">
<rect width="240" height="124" fill="white" transform="translate(0 0.80545)"/>
</clipPath>
</defs>
</svg>
