<svg width="32" height="32" viewBox="0 0 32 32" fill="none" xmlns="http://www.w3.org/2000/svg">
<g clip-path="url(#clip0_422_4245)">
<path d="M28.93 21.87L29.96 20.44C30.1 20.24 30.12 19.9 30 19.69L29.05 18.04C28.93 17.83 28.63 17.67 28.38 17.7L26.62 17.89M26.62 27.34L28.38 27.53C28.62 27.56 28.93 27.4 29.05 27.19L30 25.54C30.12 25.33 30.11 24.99 29.96 24.79L28.93 23.36M20.73 28.09L21.45 29.69C21.55 29.91 21.83 30.1 22.08 30.1H23.99C24.23 30.1 24.52 29.92 24.62 29.69L25.34 28.09M17.14 23.36L16.11 24.79C15.95 25.01 15.93 25.3 16.07 25.54L17.02 27.18C17.16 27.42 17.42 27.56 17.69 27.53L19.45 27.34M19.45 17.89L17.69 17.7C17.41 17.67 17.16 17.81 17.02 18.05L16.07 19.69C15.93 19.93 15.95 20.22 16.11 20.44L17.14 21.87M25.34 17.14L24.62 15.54C24.52 15.32 24.24 15.13 23.99 15.13H22.08C21.84 15.13 21.55 15.31 21.45 15.54L20.73 17.14M3.05 10.03L2.02 11.46C1.88 11.66 1.86 12 1.98 12.21L2.93 13.86C3.05 14.07 3.35 14.23 3.6 14.2L5.36 14.01M5.36 4.56L3.6 4.37C3.36 4.34 3.05 4.5 2.93 4.71L1.98 6.36C1.86 6.57 1.87 6.91 2.02 7.11L3.05 8.54M11.25 3.81L10.53 2.21C10.43 1.99 10.15 1.8 9.9 1.8H7.99C7.75 1.8 7.46 1.98 7.36 2.21L6.64 3.81M14.84 8.54L15.87 7.11C16.03 6.89 16.05 6.6 15.91 6.36L14.96 4.72C14.82 4.48 14.56 4.34 14.29 4.37L12.53 4.56M12.53 14.01L14.29 14.2C14.57 14.23 14.82 14.09 14.96 13.85L15.91 12.21C16.05 11.97 16.03 11.68 15.87 11.46L14.84 10.03M6.64 14.76L7.36 16.36C7.46 16.58 7.74 16.77 7.99 16.77H9.9C10.14 16.77 10.43 16.59 10.53 16.36L11.25 14.76M19.4 5.55C23.3 5.55 26.45 8.71 26.45 12.6M26.43 12.6L28.34 10.04M26.43 12.6L23.87 10.69M12.59 26.47C8.69 26.47 5.54 23.31 5.54 19.42M5.47 19.42L3.73 22.11M8.15 21.16L5.46 19.42M19.64 23.29C19.17 20.85 21.28 18.74 23.72 19.21C24.93 19.44 26.21 20.72 26.44 21.93C26.91 24.37 24.8 26.47 22.36 26.01C21.15 25.78 19.87 24.5 19.64 23.29ZM12.34 8.61C12.81 11.05 10.7 13.16 8.26 12.69C7.05 12.46 5.77 11.18 5.54 9.97C5.07 7.53 7.18 5.43 9.62 5.89C10.83 6.12 12.11 7.4 12.34 8.61Z" stroke="#3D3D40" stroke-width="1.5" stroke-miterlimit="10" stroke-linecap="round"/>
</g>
<defs>
<clipPath id="clip0_422_4245">
<rect width="32" height="32" fill="white"/>
</clipPath>
</defs>
</svg>
