<svg width="32" height="32" viewBox="0 0 32 32" fill="none" xmlns="http://www.w3.org/2000/svg">
<path d="M4 8.22222C4 7.52319 4.54605 7 5.16667 7H26.8333C27.454 7 28 7.52319 28 8.22222V23.7778C28 24.4768 27.454 25 26.8333 25H5.16667C4.54605 25 4 24.4768 4 23.7778V8.22222Z" stroke="#3D3D40" stroke-width="2"/>
<path d="M6 11C6 10.4477 6.44772 10 7 10H9.44444C9.99673 10 10.4444 10.4477 10.4444 11V11.4C10.4444 11.9523 9.99673 12.4 9.44444 12.4H7C6.44772 12.4 6 11.9523 6 11.4V11Z" fill="#3D3D40"/>
<path d="M6 15.8C6 15.2477 6.44772 14.8 7 14.8H9.44444C9.99673 14.8 10.4444 15.2477 10.4444 15.8V16.2C10.4444 16.7523 9.99673 17.2 9.44444 17.2H7C6.44772 17.2 6 16.7523 6 16.2V15.8Z" fill="#3D3D40"/>
<path d="M6 20.6C6 20.0477 6.44772 19.6 7 19.6H9.44444C9.99673 19.6 10.4444 20.0477 10.4444 20.6V21C10.4444 21.5523 9.99673 22 9.44444 22H7C6.44772 22 6 21.5523 6 21V20.6Z" fill="#3D3D40"/>
<path d="M12.6667 11C12.6667 10.4477 13.1144 10 13.6667 10H25C25.5523 10 26 10.4477 26 11V11.4C26 11.9523 25.5523 12.4 25 12.4H13.6667C13.1144 12.4 12.6667 11.9523 12.6667 11.4V11Z" fill="#3D3D40"/>
<path d="M12.6667 15.8C12.6667 15.2477 13.1144 14.8 13.6667 14.8H25C25.5523 14.8 26 15.2477 26 15.8V16.2C26 16.7523 25.5523 17.2 25 17.2H13.6667C13.1144 17.2 12.6667 16.7523 12.6667 16.2V15.8Z" fill="#3D3D40"/>
<path d="M12.6667 20.6C12.6667 20.0477 13.1144 19.6 13.6667 19.6H25C25.5523 19.6 26 20.0477 26 20.6V21C26 21.5523 25.5523 22 25 22H13.6667C13.1144 22 12.6667 21.5523 12.6667 21V20.6Z" fill="#3D3D40"/>
</svg>
