<svg width="201" height="174" viewBox="0 0 201 174" fill="none" xmlns="http://www.w3.org/2000/svg">
<path opacity="0.8" d="M200.12 136.575L130.142 173.212L0.119629 99.8969L40.1773 78.9064L70.097 63.2048L200.12 136.575Z" fill="#B3B3B3"/>
<path d="M169.211 92.9456C174.253 95.7755 174.472 104.979 169.692 113.496C164.911 122.014 156.944 126.616 151.902 123.786L148.839 122.055C143.797 119.225 143.577 110.021 148.358 101.504C153.139 92.9868 161.106 88.3849 166.148 91.2147L169.211 92.9456Z" fill="#FD6B4B" stroke="#1B1B1B" stroke-miterlimit="10"/>
<path d="M151.903 123.786C146.861 120.956 146.641 111.752 151.422 103.235C156.202 94.7177 164.17 90.1158 169.211 92.9456" stroke="#1B1B1B" stroke-width="0.25" stroke-miterlimit="10"/>
<path d="M164.293 97.6163L144.896 86.7227V78.549L87.1313 46.0331L79.5346 50.0169L66.9788 42.9559L38.3505 57.9707V95.8305L50.453 102.63H50.5079C50.2469 105.501 51.0299 107.892 52.857 108.922L109.99 141.081C111.831 142.111 114.304 141.534 116.625 139.79L135.665 150.477L164.293 135.462V97.6026V97.6163Z" fill="#FD6B4B" stroke="#1B1B1B" stroke-miterlimit="10"/>
<path d="M135.679 150.491V112.617L164.293 97.6164" stroke="#1B1B1B" stroke-width="0.25" stroke-miterlimit="10"/>
<path d="M117.12 140.064V102.205L145.748 87.1899" stroke="#1B1B1B" stroke-width="0.5" stroke-miterlimit="10"/>
<path d="M56.1816 91.8467V71.3508" stroke="#1B1B1B" stroke-width="0.5" stroke-miterlimit="10"/>
<path d="M56.1816 71.3507V67.3806L65.5504 62.4764" stroke="#1B1B1B" stroke-width="0.25" stroke-miterlimit="10"/>
<path d="M113.947 103.867L120.856 100.24" stroke="#1B1B1B" stroke-width="0.25" stroke-miterlimit="10"/>
<path d="M117.12 102.205L135.679 112.617" stroke="#1B1B1B" stroke-width="0.25" stroke-miterlimit="10"/>
<path d="M38.3505 57.9571L56.1814 67.3808" stroke="#1B1B1B" stroke-width="0.25" stroke-miterlimit="10"/>
<path d="M144.897 78.5491L127.148 87.8492" stroke="#1B1B1B" stroke-width="0.25" stroke-miterlimit="10"/>
<path d="M117.12 120.228L63.4625 90.0197C60.3716 88.2889 55.4949 91.105 52.5689 96.3251C51.3737 98.4544 50.6869 100.652 50.5083 102.63" stroke="#1B1B1B" stroke-width="0.5" stroke-miterlimit="10"/>
<path d="M79.5349 50.0032L69.3831 55.3332L63.0915 67.7242L56.1816 71.3508" stroke="#1B1B1B" stroke-width="0.5" stroke-miterlimit="10"/>
<path d="M110.004 141.081C106.913 139.35 106.79 133.718 109.716 128.498C111.68 124.995 114.524 122.577 117.12 121.89" stroke="#1B1B1B" stroke-width="0.25" stroke-miterlimit="10"/>
<path d="M127.147 87.8492L120.856 100.24L63.0908 67.7242" stroke="#1B1B1B" stroke-width="0.25" stroke-miterlimit="10"/>
<path d="M69.3826 55.3333L127.148 87.8492" stroke="#1B1B1B" stroke-width="0.25" stroke-miterlimit="10"/>
<path d="M56.1816 71.3508L113.947 103.867V118.442" stroke="#1B1B1B" stroke-width="0.25" stroke-miterlimit="10"/>
<path d="M144.897 86.7227V87.6431" stroke="#1B1B1B" stroke-width="0.25" stroke-miterlimit="10"/>
<path d="M149.292 75.3208V60.5808L89.9065 27.1719L87.3926 28.4907V43.217L146.778 76.6259L149.292 75.3208Z" fill="#FD6B4B" stroke="#1B1B1B" stroke-miterlimit="10"/>
<path d="M146.778 61.8996L149.292 60.5808" stroke="#1B1B1B" stroke-width="0.25" stroke-miterlimit="10"/>
<path d="M87.3923 28.4906L146.778 61.8995" stroke="#1B1B1B" stroke-width="0.25" stroke-miterlimit="10"/>
<path d="M146.778 76.6259V61.8996" stroke="#1B1B1B" stroke-width="0.25" stroke-miterlimit="10"/>
<path d="M99.0139 52.4897L99.2337 35.3319L92.1865 31.3756L89.9886 32.5158L89.7825 49.6873L96.8159 53.6436L99.0139 52.4897Z" fill="#FD6B4B" stroke="#1B1B1B" stroke-miterlimit="10"/>
<path d="M97.0358 36.4722L99.2337 35.332" stroke="#1B1B1B" stroke-width="0.25" stroke-miterlimit="10"/>
<path d="M89.9885 32.5158L97.0357 36.4721" stroke="#1B1B1B" stroke-width="0.25" stroke-miterlimit="10"/>
<path d="M96.8164 53.6436L97.0362 36.4721" stroke="#1B1B1B" stroke-width="0.25" stroke-miterlimit="10"/>
<path d="M142.314 76.8595L142.534 59.6879L135.486 55.7316L133.302 56.8856L133.082 74.0571L140.13 77.9996L142.314 76.8595Z" fill="#FD6B4B" stroke="#1B1B1B" stroke-miterlimit="10"/>
<path d="M140.335 60.842L142.533 59.688" stroke="#1B1B1B" stroke-width="0.25" stroke-miterlimit="10"/>
<path d="M133.303 56.8855L140.336 60.8418" stroke="#1B1B1B" stroke-width="0.25" stroke-miterlimit="10"/>
<path d="M140.129 77.9996L140.335 60.8418" stroke="#1B1B1B" stroke-width="0.25" stroke-miterlimit="10"/>
<path d="M72.5421 53.149V30.1117L62.143 24.7542L45.0265 33.7245V56.7618L55.4256 62.1194L72.5421 53.149Z" fill="#FD6B4B" stroke="#1B1B1B" stroke-miterlimit="10"/>
<path d="M55.4255 39.082L72.5421 30.1116" stroke="#1B1B1B" stroke-width="0.25" stroke-miterlimit="10"/>
<path d="M45.0265 33.7246L55.4256 39.0821" stroke="#1B1B1B" stroke-width="0.25" stroke-miterlimit="10"/>
<path d="M55.4255 62.1193V39.082" stroke="#1B1B1B" stroke-width="0.25" stroke-miterlimit="10"/>
<path d="M50.2466 35.3319L45.0265 32.6394V9.60211L62.143 0.617981L72.5421 5.97549V11.017L67.3632 13.7233V26.3478L50.2466 35.3319Z" fill="#FD6B4B" stroke="#1B1B1B" stroke-miterlimit="10"/>
<path d="M55.4255 14.9597L72.5421 5.97552" stroke="#1B1B1B" stroke-width="0.25" stroke-miterlimit="10"/>
<path d="M45.0265 9.60214L55.4256 14.9597" stroke="#1B1B1B" stroke-width="0.25" stroke-miterlimit="10"/>
<path d="M55.4255 19.9874V14.9596" stroke="#1B1B1B" stroke-width="0.25" stroke-miterlimit="10"/>
<path d="M50.2192 35.7029V17.3087L55.4257 19.9875L67.3633 13.7233" stroke="#1B1B1B" stroke-width="0.25" stroke-miterlimit="10"/>
<path d="M155.2 99.7732V76.7496L144.801 71.3784L127.684 80.3625V103.4L138.083 108.757L155.2 99.7732Z" fill="#FD6B4B" stroke="#1B1B1B" stroke-miterlimit="10"/>
<path d="M138.083 85.7201L155.199 76.7497" stroke="#1B1B1B" stroke-width="0.25" stroke-miterlimit="10"/>
<path d="M127.684 80.3625L138.083 85.7201" stroke="#1B1B1B" stroke-width="0.25" stroke-miterlimit="10"/>
<path d="M138.083 108.757V85.72" stroke="#1B1B1B" stroke-width="0.25" stroke-miterlimit="10"/>
<path d="M150.322 55.1273L72.3224 11.127L55.4394 19.9326L50.549 17.4736V21.4162L133.206 68.054L150.322 59.0699V55.1273Z" fill="#FD6B4B" stroke="#1B1B1B" stroke-miterlimit="10"/>
<path d="M133.206 68.0539V64.1113" stroke="#1B1B1B" stroke-width="0.25" stroke-miterlimit="10"/>
<path d="M150.322 55.1273L133.206 64.1114L50.549 17.4736" stroke="#1B1B1B" stroke-width="0.25" stroke-miterlimit="10"/>
<path d="M68.0913 14.9596C67.2808 15.4129 67.2396 16.9103 68.0089 18.284C68.7782 19.6577 70.0695 20.3995 70.88 19.9462L71.3745 19.6715C72.185 19.2181 72.2262 17.7208 71.4569 16.347C70.6876 14.9733 69.3963 14.2315 68.5858 14.6848L68.0913 14.9596Z" fill="#FD6B4B" stroke="#1B1B1B" stroke-width="0.5" stroke-miterlimit="10"/>
<path d="M70.8938 19.9462C71.7042 19.4928 71.7455 17.9955 70.9762 16.6218C70.2069 15.248 68.9156 14.5062 68.1051 14.9596" stroke="#1B1B1B" stroke-width="0.25" stroke-miterlimit="10"/>
<path d="M115.595 48.3135C114.784 48.7669 114.743 50.2642 115.513 51.6379C116.282 53.0117 117.573 53.7535 118.384 53.3001L118.878 53.0254C119.689 52.5721 119.73 51.0747 118.961 49.701C118.191 48.3273 116.9 47.5855 116.09 48.0388L115.595 48.3135Z" fill="#FD6B4B" stroke="#1B1B1B" stroke-width="0.5" stroke-miterlimit="10"/>
<path d="M118.383 53.3001C119.194 52.8467 119.235 51.3494 118.466 49.9757C117.696 48.6019 116.405 47.8601 115.595 48.3134" stroke="#1B1B1B" stroke-width="0.25" stroke-miterlimit="10"/>
<path d="M119.263 37.8871L78.0372 6.319L66.7452 12.2397V13.8607L107.971 45.4288L119.263 39.5081V37.8871Z" fill="#FD6B4B" stroke="#1B1B1B" stroke-width="0.5" stroke-miterlimit="10"/>
<path d="M119.263 37.8871L107.971 43.8078L66.7452 12.2397" stroke="#1B1B1B" stroke-width="0.25" stroke-miterlimit="10"/>
<path d="M107.97 45.4289V43.8079" stroke="#1B1B1B" stroke-width="0.25" stroke-miterlimit="10"/>
<path d="M145.775 52.3111L126.241 41.4861L114.949 47.4069V49.0279L134.483 59.8528L145.775 53.9321V52.3111Z" fill="#FD6B4B" stroke="#1B1B1B" stroke-width="0.5" stroke-miterlimit="10"/>
<path d="M145.775 52.3112L134.483 58.2319L114.949 47.407" stroke="#1B1B1B" stroke-width="0.25" stroke-miterlimit="10"/>
<path d="M134.484 59.8527V58.2318" stroke="#1B1B1B" stroke-width="0.25" stroke-miterlimit="10"/>
<path d="M155.2 75.6506V52.6133L144.801 47.2557L127.684 56.2399V61.4325L133.206 64.1113V82.1208L138.083 84.6209L155.2 75.6506Z" fill="#FD6B4B" stroke="#1B1B1B" stroke-miterlimit="10"/>
<path d="M138.083 61.5975L155.199 52.6133" stroke="#1B1B1B" stroke-width="0.25" stroke-miterlimit="10"/>
<path d="M127.684 56.2399L138.083 61.5974" stroke="#1B1B1B" stroke-width="0.25" stroke-miterlimit="10"/>
<path d="M138.083 84.6209V61.5974" stroke="#1B1B1B" stroke-width="0.25" stroke-miterlimit="10"/>
</svg>
