<svg width="201" height="174" viewBox="0 0 201 174" fill="none" xmlns="http://www.w3.org/2000/svg">
<path opacity="0.8" d="M200.12 136.787L130.142 173.425L0.119629 100.109L40.1773 79.1186L70.097 63.417L200.12 136.787Z" fill="#B3B3B3"/>
<path d="M169.211 93.1578C174.253 95.9877 174.472 105.192 169.692 113.709C164.911 122.226 156.944 126.828 151.902 123.998L148.839 122.267C143.797 119.437 143.577 110.233 148.358 101.716C153.139 93.199 161.106 88.5971 166.148 91.4269L169.211 93.1578Z" fill="#3D3D40" stroke="#1B1B1B" stroke-miterlimit="10"/>
<path d="M151.903 123.998C146.861 121.168 146.641 111.964 151.422 103.447C156.202 94.9299 164.17 90.328 169.211 93.1578" stroke="#1B1B1B" stroke-width="0.25" stroke-miterlimit="10"/>
<path d="M164.293 97.8285L144.896 86.9349V78.7613L87.1313 46.2453L79.5346 50.2291L66.9788 43.1682L38.3505 58.1829V96.0427L50.453 102.843H50.5079C50.2469 105.714 51.0299 108.104 52.857 109.134L109.99 141.293C111.831 142.323 114.304 141.746 116.625 140.002L135.665 150.689L164.293 135.675V97.8148V97.8285Z" fill="#3D3D40" stroke="#1B1B1B" stroke-miterlimit="10"/>
<path d="M135.679 150.703V112.83L164.293 97.8286" stroke="#1B1B1B" stroke-width="0.25" stroke-miterlimit="10"/>
<path d="M117.12 140.277V102.417L145.748 87.4022" stroke="#1B1B1B" stroke-width="0.5" stroke-miterlimit="10"/>
<path d="M56.1816 92.059V71.563" stroke="#1B1B1B" stroke-width="0.5" stroke-miterlimit="10"/>
<path d="M56.1816 71.5629V67.5928L65.5504 62.6887" stroke="#1B1B1B" stroke-width="0.25" stroke-miterlimit="10"/>
<path d="M113.947 104.079L120.856 100.452" stroke="#1B1B1B" stroke-width="0.25" stroke-miterlimit="10"/>
<path d="M117.12 102.417L135.679 112.83" stroke="#1B1B1B" stroke-width="0.25" stroke-miterlimit="10"/>
<path d="M38.3505 58.1693L56.1814 67.593" stroke="#1B1B1B" stroke-width="0.25" stroke-miterlimit="10"/>
<path d="M144.897 78.7614L127.148 88.0614" stroke="#1B1B1B" stroke-width="0.25" stroke-miterlimit="10"/>
<path d="M117.12 120.44L63.4625 90.232C60.3716 88.5011 55.4949 91.3172 52.5689 96.5373C51.3737 98.6666 50.6869 100.865 50.5083 102.843" stroke="#1B1B1B" stroke-width="0.5" stroke-miterlimit="10"/>
<path d="M79.5349 50.2154L69.3831 55.5454L63.0915 67.9364L56.1816 71.563" stroke="#1B1B1B" stroke-width="0.5" stroke-miterlimit="10"/>
<path d="M110.004 141.293C106.913 139.562 106.79 133.93 109.716 128.71C111.68 125.207 114.524 122.789 117.12 122.102" stroke="#1B1B1B" stroke-width="0.25" stroke-miterlimit="10"/>
<path d="M127.147 88.0615L120.856 100.452L63.0908 67.9365" stroke="#1B1B1B" stroke-width="0.25" stroke-miterlimit="10"/>
<path d="M69.3826 55.5455L127.148 88.0614" stroke="#1B1B1B" stroke-width="0.25" stroke-miterlimit="10"/>
<path d="M56.1816 71.563L113.947 104.079V118.654" stroke="#1B1B1B" stroke-width="0.25" stroke-miterlimit="10"/>
<path d="M144.897 86.9349V87.8553" stroke="#1B1B1B" stroke-width="0.25" stroke-miterlimit="10"/>
<path d="M149.292 75.5331V60.793L89.9065 27.3842L87.3926 28.7029V43.4292L146.778 76.8381L149.292 75.5331Z" fill="#3D3D40" stroke="#1B1B1B" stroke-miterlimit="10"/>
<path d="M146.778 62.1118L149.292 60.793" stroke="#1B1B1B" stroke-width="0.25" stroke-miterlimit="10"/>
<path d="M87.3923 28.7028L146.778 62.1117" stroke="#1B1B1B" stroke-width="0.25" stroke-miterlimit="10"/>
<path d="M146.778 76.8381V62.1118" stroke="#1B1B1B" stroke-width="0.25" stroke-miterlimit="10"/>
<path d="M99.0139 52.7019L99.2337 35.5441L92.1865 31.5878L89.9886 32.728L89.7825 49.8995L96.8159 53.8558L99.0139 52.7019Z" fill="#3D3D40" stroke="#1B1B1B" stroke-miterlimit="10"/>
<path d="M97.0358 36.6844L99.2337 35.5442" stroke="#1B1B1B" stroke-width="0.25" stroke-miterlimit="10"/>
<path d="M89.9885 32.728L97.0357 36.6843" stroke="#1B1B1B" stroke-width="0.25" stroke-miterlimit="10"/>
<path d="M96.8164 53.8558L97.0362 36.6843" stroke="#1B1B1B" stroke-width="0.25" stroke-miterlimit="10"/>
<path d="M142.314 77.0717L142.534 59.9002L135.486 55.9438L133.302 57.0978L133.082 74.2693L140.13 78.2119L142.314 77.0717Z" fill="#3D3D40" stroke="#1B1B1B" stroke-miterlimit="10"/>
<path d="M140.335 61.0542L142.533 59.9003" stroke="#1B1B1B" stroke-width="0.25" stroke-miterlimit="10"/>
<path d="M133.303 57.0977L140.336 61.054" stroke="#1B1B1B" stroke-width="0.25" stroke-miterlimit="10"/>
<path d="M140.129 78.2118L140.335 61.054" stroke="#1B1B1B" stroke-width="0.25" stroke-miterlimit="10"/>
<path d="M72.5421 53.3612V30.3239L62.143 24.9664L45.0265 33.9368V56.9741L55.4256 62.3316L72.5421 53.3612Z" fill="#3D3D40" stroke="#1B1B1B" stroke-miterlimit="10"/>
<path d="M55.4255 39.2942L72.5421 30.3239" stroke="#1B1B1B" stroke-width="0.25" stroke-miterlimit="10"/>
<path d="M45.0265 33.9368L55.4256 39.2943" stroke="#1B1B1B" stroke-width="0.25" stroke-miterlimit="10"/>
<path d="M55.4255 62.3316V39.2943" stroke="#1B1B1B" stroke-width="0.25" stroke-miterlimit="10"/>
<path d="M50.2466 35.5441L45.0265 32.8516V9.81433L62.143 0.8302L72.5421 6.18771V11.2293L67.3632 13.9355V26.56L50.2466 35.5441Z" fill="#3D3D40" stroke="#1B1B1B" stroke-miterlimit="10"/>
<path d="M55.4255 15.1719L72.5421 6.18774" stroke="#1B1B1B" stroke-width="0.25" stroke-miterlimit="10"/>
<path d="M45.0265 9.81433L55.4256 15.1718" stroke="#1B1B1B" stroke-width="0.25" stroke-miterlimit="10"/>
<path d="M55.4255 20.1996V15.1718" stroke="#1B1B1B" stroke-width="0.25" stroke-miterlimit="10"/>
<path d="M50.2192 35.9151V17.521L55.4257 20.1997L67.3633 13.9355" stroke="#1B1B1B" stroke-width="0.25" stroke-miterlimit="10"/>
<path d="M155.2 99.9854V76.9618L144.801 71.5906L127.684 80.5747V103.612L138.083 108.97L155.2 99.9854Z" fill="#3D3D40" stroke="#1B1B1B" stroke-miterlimit="10"/>
<path d="M138.083 85.9323L155.199 76.9619" stroke="#1B1B1B" stroke-width="0.25" stroke-miterlimit="10"/>
<path d="M127.684 80.5748L138.083 85.9323" stroke="#1B1B1B" stroke-width="0.25" stroke-miterlimit="10"/>
<path d="M138.083 108.969V85.9322" stroke="#1B1B1B" stroke-width="0.25" stroke-miterlimit="10"/>
<path d="M150.322 55.3395L72.3224 11.3392L55.4394 20.1448L50.549 17.6858V21.6284L133.206 68.2662L150.322 59.2821V55.3395Z" fill="#3D3D40" stroke="#1B1B1B" stroke-miterlimit="10"/>
<path d="M133.206 68.2661V64.3235" stroke="#1B1B1B" stroke-width="0.25" stroke-miterlimit="10"/>
<path d="M150.322 55.3395L133.206 64.3236L50.549 17.6858" stroke="#1B1B1B" stroke-width="0.25" stroke-miterlimit="10"/>
<path d="M68.0913 15.1718C67.2808 15.6251 67.2396 17.1225 68.0089 18.4962C68.7782 19.8699 70.0695 20.6117 70.88 20.1584L71.3745 19.8837C72.185 19.4303 72.2262 17.933 71.4569 16.5593C70.6876 15.1855 69.3963 14.4437 68.5858 14.8971L68.0913 15.1718Z" fill="#3D3D40" stroke="#1B1B1B" stroke-width="0.5" stroke-miterlimit="10"/>
<path d="M70.8938 20.1584C71.7042 19.7051 71.7455 18.2077 70.9762 16.834C70.2069 15.4603 68.9156 14.7185 68.1051 15.1718" stroke="#1B1B1B" stroke-width="0.25" stroke-miterlimit="10"/>
<path d="M115.595 48.5257C114.784 48.9791 114.743 50.4764 115.513 51.8502C116.282 53.2239 117.573 53.9657 118.384 53.5124L118.878 53.2376C119.689 52.7843 119.73 51.2869 118.961 49.9132C118.191 48.5395 116.9 47.7977 116.09 48.251L115.595 48.5257Z" fill="#3D3D40" stroke="#1B1B1B" stroke-width="0.5" stroke-miterlimit="10"/>
<path d="M118.383 53.5123C119.194 53.0589 119.235 51.5616 118.466 50.1879C117.696 48.8142 116.405 48.0723 115.595 48.5257" stroke="#1B1B1B" stroke-width="0.25" stroke-miterlimit="10"/>
<path d="M119.263 38.0993L78.0372 6.53119L66.7452 12.4519V14.0729L107.971 45.641L119.263 39.7203V38.0993Z" fill="#3D3D40" stroke="#1B1B1B" stroke-width="0.5" stroke-miterlimit="10"/>
<path d="M119.263 38.0993L107.971 44.02L66.7452 12.4519" stroke="#1B1B1B" stroke-width="0.25" stroke-miterlimit="10"/>
<path d="M107.97 45.6411V44.0201" stroke="#1B1B1B" stroke-width="0.25" stroke-miterlimit="10"/>
<path d="M145.775 52.5233L126.241 41.6984L114.949 47.6191V49.2401L134.483 60.065L145.775 54.1443V52.5233Z" fill="#3D3D40" stroke="#1B1B1B" stroke-width="0.5" stroke-miterlimit="10"/>
<path d="M145.775 52.5234L134.483 58.4441L114.949 47.6192" stroke="#1B1B1B" stroke-width="0.25" stroke-miterlimit="10"/>
<path d="M134.484 60.065V58.444" stroke="#1B1B1B" stroke-width="0.25" stroke-miterlimit="10"/>
<path d="M155.2 75.8628V52.8255L144.801 47.468L127.684 56.4521V61.6448L133.206 64.3235V82.333L138.083 84.8332L155.2 75.8628Z" fill="#3D3D40" stroke="#1B1B1B" stroke-miterlimit="10"/>
<path d="M138.083 61.8097L155.199 52.8256" stroke="#1B1B1B" stroke-width="0.25" stroke-miterlimit="10"/>
<path d="M127.684 56.4521L138.083 61.8097" stroke="#1B1B1B" stroke-width="0.25" stroke-miterlimit="10"/>
<path d="M138.083 84.8331V61.8096" stroke="#1B1B1B" stroke-width="0.25" stroke-miterlimit="10"/>
</svg>
