<svg width="240" height="124" viewBox="0 0 240 124" fill="none" xmlns="http://www.w3.org/2000/svg">
<g clip-path="url(#clip0_158_13160)">
<path opacity="0.8" d="M95.9187 124L39 94.1482L144.755 37.8435L201.673 67.6954L95.9187 124Z" fill="#B3B3B3"/>
<path d="M172.515 71.333L105.422 106.55L62.8154 84.2127V56.6685L72.4439 38.139L144.186 0.500184L154.883 0L164.512 4.99047L178.13 20.4279L185.076 44.5277L178.13 57.3847L172.56 60.3062L172.515 71.333Z" fill="white" stroke="#262626" stroke-miterlimit="10"/>
<path d="M120.633 68.798C121.269 71.0147 123.474 71.9582 125.521 70.8783L139.696 63.4323C141.743 62.3524 142.891 59.6582 142.254 57.4415L139.423 48.8929C138.787 46.6762 136.582 45.7327 134.535 46.8126L120.371 54.2585C118.325 55.3385 117.177 58.0326 117.813 60.2494L120.644 68.798H120.633Z" stroke="#262626" stroke-width="0.25" stroke-linecap="round" stroke-linejoin="round"/>
<path d="M152.496 52.1896C153.133 54.4063 155.338 55.3498 157.384 54.2699L171.594 46.8126C173.64 45.7327 174.788 43.0385 174.152 40.8218L171.321 32.2732C170.685 30.0565 168.479 29.113 166.433 30.1929L152.223 37.6502C150.177 38.7301 149.029 41.4243 149.665 43.641L152.496 52.1896V52.1896Z" stroke="#262626" stroke-width="0.25" stroke-linecap="round" stroke-linejoin="round"/>
<path d="M72.4438 38.139L81.9359 38.0253L91.8259 43.1294L105.422 58.6124L112.368 82.7121" stroke="#262626" stroke-width="0.25" stroke-miterlimit="10"/>
<path d="M178.13 20.4279L105.422 58.6123" stroke="#262626" stroke-width="0.25" stroke-linecap="round" stroke-linejoin="round"/>
<path d="M172.56 60.3063L105.422 95.5806" stroke="#1B1B1B" stroke-width="0.5" stroke-miterlimit="10"/>
<path d="M112.367 82.7122L185.076 44.5277" stroke="#262626" stroke-width="0.25" stroke-linecap="round" stroke-linejoin="round"/>
<path d="M164.512 4.99048L91.8032 43.1749" stroke="#262626" stroke-width="0.25" stroke-linecap="round" stroke-linejoin="round"/>
<path d="M154.884 0L82.1753 38.1845L62.8955 56.7026" stroke="#262626" stroke-width="0.25" stroke-linecap="round" stroke-linejoin="round"/>
<path d="M84.3799 62.7389V38.048L80.026 35.8881L79.4917 36.1723V60.8518L83.8457 63.023L84.3799 62.7389Z" fill="white" stroke="#262626" stroke-width="0.25" stroke-linecap="round" stroke-linejoin="round"/>
<path d="M94.4868 66.388V41.7085L90.1329 39.5372L89.5986 39.8214V64.5009L93.9525 66.6722L94.4868 66.388Z" fill="white" stroke="#262626" stroke-width="0.25" stroke-linecap="round" stroke-linejoin="round"/>
<path d="M92.6436 48.4155C92.8595 48.3132 92.8936 47.904 92.7003 47.4834C92.5184 47.0741 92.1887 46.8127 91.9728 46.915L89.0285 48.2223C88.8125 48.3246 88.7784 48.7338 88.9716 49.1431C89.1535 49.5523 89.4832 49.8138 89.6992 49.7115L92.6436 48.4042V48.4155Z" fill="white" stroke="#262626" stroke-width="0.25" stroke-linecap="round" stroke-linejoin="round"/>
<path d="M89.0283 48.2337C89.2443 48.1314 89.5739 48.3928 89.7672 48.8021C89.9491 49.2113 89.9263 49.6319 89.6989 49.7229C89.4829 49.8252 89.1533 49.5637 88.9714 49.1545C88.7895 48.7452 88.8123 48.3246 89.0283 48.2337Z" fill="#F2F2F2"/>
<path d="M100.635 60.9088C100.839 60.7951 100.839 60.3858 100.635 59.9766C100.419 59.5787 100.078 59.3514 99.8619 59.4651L97.0199 60.9883C96.8039 61.102 96.8039 61.5226 97.0199 61.9205C97.2359 62.3184 97.5768 62.5457 97.7928 62.4434L100.635 60.9201V60.9088Z" fill="white" stroke="#262626" stroke-width="0.25" stroke-linecap="round" stroke-linejoin="round"/>
<path d="M97.0199 60.9883C97.2245 60.8747 97.5768 61.102 97.7928 61.5113C98.0088 61.9091 98.0088 62.3297 97.7928 62.4434C97.5768 62.5571 97.2359 62.3297 97.0199 61.9205C96.8039 61.5226 96.8039 61.1134 97.0199 60.9883Z" fill="#F2F2F2"/>
<path d="M89.8809 46.7559C89.7331 46.4944 89.1987 46.5058 88.6986 46.79C88.1984 47.0742 87.9142 47.5175 88.062 47.779L97.1904 63.9212C97.3382 64.1827 97.8724 64.1713 98.3726 63.8871C98.8728 63.6029 99.157 63.1596 99.0092 62.8981L89.8809 46.7559Z" fill="white" stroke="#262626" stroke-width="0.25" stroke-linecap="round" stroke-linejoin="round"/>
<path d="M97.1904 63.9213C97.0427 63.6598 97.3268 63.2051 97.827 62.9209C98.3272 62.6367 98.8501 62.6253 99.0093 62.8868" stroke="#262626" stroke-width="0.25" stroke-linecap="round" stroke-linejoin="round"/>
<path d="M92.8041 42.8225C93.02 42.7202 93.0541 42.311 92.8722 41.8904C92.6903 41.4811 92.3606 41.2197 92.1446 41.322L89.2004 42.6293C88.9844 42.7316 88.9503 43.1408 89.1435 43.5501C89.3254 43.9593 89.6551 44.2208 89.8711 44.1184L92.8153 42.8111L92.8041 42.8225Z" fill="white" stroke="#262626" stroke-width="0.25" stroke-linecap="round" stroke-linejoin="round"/>
<path d="M89.1894 42.6407C89.4168 42.5384 89.7351 42.7999 89.9283 43.2091C90.1102 43.6184 90.0874 44.039 89.8601 44.1299C89.6441 44.2322 89.3144 43.9708 89.1325 43.5615C88.9506 43.1523 88.9734 42.7317 89.1894 42.6407Z" fill="#F2F2F2"/>
<path d="M100.795 55.3157C101 55.2021 101 54.7928 100.795 54.3836C100.579 53.9857 100.238 53.7584 100.022 53.872L97.1801 55.3953C96.9641 55.509 96.9641 55.9296 97.1801 56.3275C97.396 56.7254 97.737 56.9527 97.953 56.8504L100.795 55.3271V55.3157Z" fill="white" stroke="#262626" stroke-width="0.25" stroke-linecap="round" stroke-linejoin="round"/>
<path d="M97.1698 55.3954C97.3858 55.2817 97.7267 55.5091 97.9427 55.9183C98.1587 56.3162 98.1587 56.7368 97.9427 56.8505C97.7267 56.9642 97.3858 56.7368 97.1698 56.3276C96.9538 55.9297 96.9538 55.5205 97.1698 55.3954Z" fill="#F2F2F2"/>
<path d="M90.0415 41.1628C89.8937 40.9014 89.3594 40.9127 88.8592 41.1969C88.359 41.4811 88.0749 41.9245 88.2227 42.1859L97.3511 58.3282C97.4988 58.5897 98.033 58.5783 98.5332 58.2941C99.0334 58.0099 99.3177 57.5666 99.1699 57.3051L90.0415 41.1628Z" fill="white" stroke="#262626" stroke-width="0.25" stroke-linecap="round" stroke-linejoin="round"/>
<path d="M97.3516 58.3281C97.2038 58.0666 97.4879 57.6119 97.9881 57.3277C98.4883 57.0435 99.0226 57.0322 99.1704 57.2936" stroke="#262626" stroke-width="0.25" stroke-linecap="round" stroke-linejoin="round"/>
<path d="M81.8456 37.5819C82.0502 37.4569 82.4026 37.6729 82.6413 38.0708C82.88 38.4573 82.8914 38.8779 82.6868 38.9916L79.913 40.6399C79.7084 40.7649 79.356 40.5489 79.1287 40.1624C78.8899 39.7759 78.8785 39.3553 79.0831 39.2303L81.857 37.5819H81.8456Z" fill="white" stroke="#262626" stroke-width="0.25" stroke-linecap="round" stroke-linejoin="round"/>
<path d="M79.9126 40.6399C80.1172 40.5149 80.0946 40.1056 79.8672 39.7191C79.6399 39.3326 79.2874 39.1166 79.0714 39.2303C78.8668 39.3554 78.8896 39.7646 79.1169 40.1625C79.3443 40.549 79.6966 40.765 79.9012 40.6399H79.9126Z" fill="#F2F2F2"/>
<path d="M66.3043 51.1778C66.0656 51.3597 65.5769 51.1437 65.2358 50.6776C64.8834 50.2229 64.8038 49.7 65.0425 49.5181L79.7865 38.2753C80.0253 38.0934 80.5142 38.3094 80.8552 38.7641C81.2076 39.2188 81.2871 39.7418 81.0483 39.9236L66.3043 51.1664V51.1778Z" fill="white" stroke="#262626" stroke-width="0.25" stroke-linecap="round" stroke-linejoin="round"/>
<path d="M79.7868 38.2753C79.5367 38.4572 79.6277 38.9801 79.9801 39.4348C80.3325 39.8895 80.8098 40.1169 81.0486 39.9236" stroke="#262626" stroke-width="0.25" stroke-linecap="round" stroke-linejoin="round"/>
<path d="M81.8456 41.9584C82.0502 41.8334 82.4026 42.0494 82.6413 42.4473C82.88 42.8338 82.8914 43.2544 82.6868 43.3681L79.913 45.0164C79.7084 45.1414 79.356 44.9254 79.1287 44.5389C78.8899 44.1524 78.8785 43.7318 79.0831 43.6068L81.857 41.9584H81.8456Z" fill="white" stroke="#262626" stroke-width="0.25" stroke-linecap="round" stroke-linejoin="round"/>
<path d="M79.9126 45.0164C80.1172 44.8914 80.0946 44.4822 79.8672 44.0957C79.6399 43.7091 79.2874 43.4932 79.0714 43.6068C78.8668 43.7319 78.8896 44.1411 79.1169 44.539C79.3443 44.9255 79.6966 45.1415 79.9012 45.0164H79.9126Z" fill="#F2F2F2"/>
<path d="M66.3043 55.5657C66.0656 55.7476 65.5769 55.5316 65.2358 55.0656C64.8834 54.6108 64.8038 54.0879 65.0425 53.906L79.7865 42.6633C80.0253 42.4814 80.5142 42.6974 80.8552 43.1521C81.2076 43.6068 81.2871 44.1297 81.0483 44.3116L66.3043 55.5544V55.5657Z" fill="white" stroke="#262626" stroke-width="0.25" stroke-linecap="round" stroke-linejoin="round"/>
<path d="M79.7868 42.6632C79.5367 42.8451 79.6277 43.368 79.9801 43.8228C80.3325 44.2775 80.8098 44.5048 81.0486 44.3116" stroke="#262626" stroke-width="0.25" stroke-linecap="round" stroke-linejoin="round"/>
<path d="M112.368 82.7122L105.422 95.5806V106.551" stroke="#262626" stroke-width="0.25" stroke-linecap="round" stroke-linejoin="round"/>
<path d="M67.3065 61.5567L53.8584 68.3774V95.4327L71.9105 104.925L90.2922 114.587L103.513 107.653V80.5864L67.3065 61.5567Z" fill="white" stroke="#262626" stroke-miterlimit="10"/>
<path d="M53.8584 68.3774L90.2922 87.5208L103.513 80.5865" stroke="#262626" stroke-width="0.15" stroke-miterlimit="10"/>
<path d="M90.292 114.588V87.5208" stroke="#262626" stroke-width="0.15" stroke-miterlimit="10"/>
<path d="M67.3065 33.4214L53.8584 40.2421V67.3088L71.9105 76.801L90.2922 86.4636L103.513 79.5292V52.4625L67.3065 33.4214Z" fill="white" stroke="#262626" stroke-miterlimit="10"/>
<path d="M53.8584 40.2421L90.2922 59.3968L103.513 52.4625" stroke="#262626" stroke-width="0.15" stroke-miterlimit="10"/>
<path d="M90.292 86.4635V59.3968" stroke="#262626" stroke-width="0.15" stroke-miterlimit="10"/>
<path d="M73.2632 50.439V77.5058" stroke="#262626" stroke-width="0.15" stroke-miterlimit="10"/>
<path d="M75.2983 64.7738V71.6286L80.3228 74.2659V67.4111L75.2983 64.7738Z" stroke="#262626" stroke-width="0.15" stroke-miterlimit="10"/>
<path d="M66.0332 59.8515V66.695L71.0578 69.3323V62.4889L66.0332 59.8515Z" stroke="#262626" stroke-width="0.15" stroke-miterlimit="10"/>
<path d="M101.842 63.7393C101.842 64.5124 101.285 65.4331 100.603 65.7855L93.2138 69.662C92.5317 70.0144 91.9746 69.6847 91.9746 68.9117V61.6363C91.9746 60.8633 92.5317 59.9425 93.2138 59.5901L100.603 55.7137C101.285 55.3613 101.842 55.6909 101.842 56.4639V63.7393V63.7393Z" stroke="#262626" stroke-width="0.15" stroke-miterlimit="10"/>
<path d="M94.4837 72.0847C94.7583 71.5062 94.6728 70.891 94.2928 70.7106C93.9128 70.5302 93.3821 70.853 93.1075 71.4316C92.833 72.0101 92.9184 72.6253 93.2984 72.8057C93.6784 72.986 94.2091 72.6632 94.4837 72.0847Z" stroke="#262626" stroke-width="0.15" stroke-miterlimit="10"/>
<path d="M98.0589 70.3488C98.3335 69.7703 98.248 69.1551 97.868 68.9747C97.488 68.7944 96.9573 69.1172 96.6827 69.6957C96.4081 70.2742 96.4936 70.8894 96.8736 71.0698C97.2536 71.2502 97.7843 70.9274 98.0589 70.3488Z" stroke="#262626" stroke-width="0.15" stroke-miterlimit="10"/>
<path d="M101.639 68.5912C101.914 68.0127 101.828 67.3975 101.448 67.2171C101.068 67.0368 100.537 67.3596 100.263 67.9381C99.9882 68.5166 100.074 69.1318 100.454 69.3122C100.834 69.4926 101.364 69.1698 101.639 68.5912Z" stroke="#262626" stroke-width="0.15" stroke-miterlimit="10"/>
<path d="M94.4852 76.3193C94.7597 75.7408 94.6743 75.1256 94.2943 74.9452C93.9142 74.7648 93.3836 75.0876 93.109 75.6662C92.8344 76.2447 92.9199 76.8599 93.2999 77.0403C93.6799 77.2207 94.2106 76.8979 94.4852 76.3193Z" stroke="#262626" stroke-width="0.15" stroke-miterlimit="10"/>
<path d="M98.0599 74.572C98.3344 73.9935 98.249 73.3782 97.869 73.1979C97.489 73.0175 96.9583 73.3403 96.6837 73.9188C96.4091 74.4974 96.4946 75.1126 96.8746 75.2929C97.2546 75.4733 97.7853 75.1505 98.0599 74.572Z" stroke="#262626" stroke-width="0.15" stroke-miterlimit="10"/>
<path d="M101.63 72.8096C101.905 72.2311 101.819 71.6158 101.439 71.4355C101.059 71.2551 100.529 71.5779 100.254 72.1564C99.9794 72.735 100.065 73.3502 100.445 73.5306C100.825 73.7109 101.356 73.3881 101.63 72.8096Z" stroke="#262626" stroke-width="0.15" stroke-miterlimit="10"/>
<path d="M94.4852 80.5424C94.7597 79.9639 94.6743 79.3487 94.2943 79.1683C93.9142 78.9879 93.3836 79.3107 93.109 79.8893C92.8344 80.4678 92.9199 81.083 93.2999 81.2634C93.6799 81.4437 94.2106 81.1209 94.4852 80.5424Z" stroke="#262626" stroke-width="0.15" stroke-miterlimit="10"/>
<path d="M98.0511 78.7903C98.3257 78.2118 98.2402 77.5966 97.8602 77.4162C97.4802 77.2359 96.9495 77.5587 96.6749 78.1372C96.4003 78.7157 96.4858 79.3309 96.8658 79.5113C97.2458 79.6917 97.7765 79.3689 98.0511 78.7903Z" stroke="#262626" stroke-width="0.15" stroke-miterlimit="10"/>
<path d="M101.642 77.0327C101.917 76.4542 101.831 75.839 101.451 75.6586C101.071 75.4783 100.541 75.8011 100.266 76.3796C99.9916 76.9581 100.077 77.5733 100.457 77.7537C100.837 77.9341 101.368 77.6113 101.642 77.0327Z" stroke="#262626" stroke-width="0.15" stroke-miterlimit="10"/>
<path d="M94.6804 88.487C94.1915 88.2142 93.4527 88.6007 93.0435 89.351C92.6342 90.1012 92.691 90.9311 93.1799 91.2039L93.8733 91.5904C94.3621 91.8633 95.1009 91.4768 95.5102 90.7265C95.9194 89.9762 95.8626 89.1464 95.3738 88.8735L94.6804 88.487Z" stroke="#262626" stroke-width="0.15" stroke-miterlimit="10"/>
<path d="M93.872 91.579C93.3832 91.3062 93.315 90.4763 93.7356 89.7261C94.1562 88.9758 94.8837 88.5893 95.3725 88.8621" stroke="#262626" stroke-width="0.15" stroke-miterlimit="10"/>
<path d="M94.6804 92.875C94.1915 92.6022 93.4527 92.9887 93.0435 93.7389C92.6342 94.4892 92.691 95.3191 93.1799 95.5919L93.8733 95.9784C94.3621 96.2512 95.1009 95.8647 95.5102 95.1144C95.9194 94.3642 95.8626 93.5343 95.3738 93.2615L94.6804 92.875Z" stroke="#262626" stroke-width="0.15" stroke-miterlimit="10"/>
<path d="M93.872 95.967C93.3832 95.6942 93.315 94.8643 93.7356 94.1141C94.1562 93.3638 94.8837 92.9773 95.3725 93.2501" stroke="#262626" stroke-width="0.15" stroke-miterlimit="10"/>
<path d="M94.6569 98.2293C94.4182 98.2293 94.2251 98.036 94.2251 97.7973V95.16C94.2251 94.9212 94.4182 94.728 94.6569 94.728C94.8957 94.728 95.0889 94.9212 95.0889 95.16V97.7973C95.0889 98.036 94.8957 98.2293 94.6569 98.2293Z" fill="white" stroke="#262626" stroke-width="0.15" stroke-miterlimit="10"/>
</g>
<defs>
<clipPath id="clip0_158_13160">
<rect width="240" height="124" fill="white"/>
</clipPath>
</defs>
</svg>
