<svg width="201" height="145" viewBox="0 0 201 145" fill="none" xmlns="http://www.w3.org/2000/svg">
<path opacity="0.8" d="M200.12 107.969L130.129 144.606L0.119629 71.2907L40.1636 50.3002L70.097 34.5986L200.12 107.969Z" fill="#B3B3B3"/>
<path d="M162.328 67.0733C167.37 69.9031 167.59 79.1071 162.809 87.6241C158.028 96.1412 150.061 100.743 145.019 97.9133L141.956 96.1824C136.914 93.3526 136.695 84.1486 141.475 75.6315C146.256 67.1145 154.223 62.5125 159.265 65.3424L162.328 67.0733Z" fill="#FD6B4B" stroke="#1B1B1B" stroke-miterlimit="10"/>
<path d="M145.006 97.9133C139.965 95.0834 139.745 85.8795 144.525 77.3624C149.306 68.8454 157.273 64.2434 162.315 67.0733" stroke="#1B1B1B" stroke-width="0.25" stroke-miterlimit="10"/>
<path d="M157.41 71.7302L138.013 60.8366V52.663L80.2485 20.147L72.6518 24.1308L60.096 17.0699L31.4677 32.0846V69.9444L43.5701 76.7443H43.6251C43.3641 79.6154 44.1471 82.0056 45.9741 83.0359L103.107 115.195C104.948 116.225 107.421 115.648 109.742 113.903L128.782 124.591L157.41 109.576V71.7165V71.7302Z" fill="#FD6B4B" stroke="#1B1B1B" stroke-miterlimit="10"/>
<path d="M128.782 124.605V86.7451L157.41 71.7303" stroke="#1B1B1B" stroke-width="0.25" stroke-miterlimit="10"/>
<path d="M110.237 114.192V76.3321L138.851 61.3174" stroke="#1B1B1B" stroke-width="0.5" stroke-miterlimit="10"/>
<path d="M49.2983 65.9744V45.4785" stroke="#1B1B1B" stroke-width="0.5" stroke-miterlimit="10"/>
<path d="M49.2983 45.4783V41.5083L58.6671 36.6041" stroke="#1B1B1B" stroke-width="0.25" stroke-miterlimit="10"/>
<path d="M107.063 77.9944L113.973 74.3678" stroke="#1B1B1B" stroke-width="0.25" stroke-miterlimit="10"/>
<path d="M110.237 76.3322L128.782 86.745" stroke="#1B1B1B" stroke-width="0.25" stroke-miterlimit="10"/>
<path d="M31.4677 32.0847L49.2985 41.5084" stroke="#1B1B1B" stroke-width="0.25" stroke-miterlimit="10"/>
<path d="M138.013 52.663L120.251 61.9768" stroke="#1B1B1B" stroke-width="0.25" stroke-miterlimit="10"/>
<path d="M110.237 94.3554L56.5792 64.1473C53.4883 62.4164 48.6116 65.2325 45.6856 70.4527C44.4904 72.5819 43.8036 74.7799 43.625 76.758" stroke="#1B1B1B" stroke-width="0.5" stroke-miterlimit="10"/>
<path d="M72.6516 24.1309L62.4861 29.4609L56.2082 41.8519L49.2983 45.4785" stroke="#1B1B1B" stroke-width="0.5" stroke-miterlimit="10"/>
<path d="M103.121 115.208C100.03 113.478 99.9067 107.845 102.833 102.625C104.797 99.1222 107.641 96.7045 110.237 96.0176" stroke="#1B1B1B" stroke-width="0.25" stroke-miterlimit="10"/>
<path d="M120.251 61.9769L113.973 74.3679L56.208 41.8519" stroke="#1B1B1B" stroke-width="0.25" stroke-miterlimit="10"/>
<path d="M62.4864 29.4609L120.251 61.9768" stroke="#1B1B1B" stroke-width="0.25" stroke-miterlimit="10"/>
<path d="M49.2983 45.4785L107.063 77.9945V92.5697" stroke="#1B1B1B" stroke-width="0.25" stroke-miterlimit="10"/>
<path d="M138.013 60.8366V61.757" stroke="#1B1B1B" stroke-width="0.25" stroke-miterlimit="10"/>
<path d="M142.41 49.4348V34.7085L83.0099 1.29959L80.5098 2.60463V17.3446L139.896 50.7535L142.41 49.4348Z" fill="#FD6B4B" stroke="#1B1B1B" stroke-miterlimit="10"/>
<path d="M139.896 36.0272L142.41 34.7085" stroke="#1B1B1B" stroke-width="0.25" stroke-miterlimit="10"/>
<path d="M80.5098 2.60452L139.896 36.0271" stroke="#1B1B1B" stroke-width="0.25" stroke-miterlimit="10"/>
<path d="M139.896 50.7535V36.0273" stroke="#1B1B1B" stroke-width="0.25" stroke-miterlimit="10"/>
<path d="M92.1178 26.6173L92.3375 9.44582L85.2904 5.4895L83.1061 6.64343L82.8864 23.8149L89.9335 27.7713L92.1178 26.6173Z" fill="#FD6B4B" stroke="#1B1B1B" stroke-miterlimit="10"/>
<path d="M90.1393 10.5997L92.3372 9.44577" stroke="#1B1B1B" stroke-width="0.25" stroke-miterlimit="10"/>
<path d="M83.1063 6.64334L90.1397 10.5997" stroke="#1B1B1B" stroke-width="0.25" stroke-miterlimit="10"/>
<path d="M89.9333 27.7711L90.1393 10.5996" stroke="#1B1B1B" stroke-width="0.25" stroke-miterlimit="10"/>
<path d="M135.431 50.9734L135.651 33.8156L128.604 29.8593L126.406 31.0132L126.186 48.171L133.233 52.1273L135.431 50.9734Z" fill="#FD6B4B" stroke="#1B1B1B" stroke-miterlimit="10"/>
<path d="M133.453 34.9695L135.651 33.8156" stroke="#1B1B1B" stroke-width="0.25" stroke-miterlimit="10"/>
<path d="M126.406 31.0132L133.453 34.9695" stroke="#1B1B1B" stroke-width="0.25" stroke-miterlimit="10"/>
<path d="M133.233 52.1273L133.453 34.9695" stroke="#1B1B1B" stroke-width="0.25" stroke-miterlimit="10"/>
</svg>
