<svg width="201" height="174" viewBox="0 0 201 174" fill="none" xmlns="http://www.w3.org/2000/svg">
<path opacity="0.8" d="M200.12 136.967L130.137 173.606L0.119629 100.286L40.1664 79.2938L70.1018 63.5911L200.12 136.967Z" fill="#B3B3B3"/>
<path d="M171.077 93.334C176.119 96.164 176.339 105.369 171.558 113.886C166.777 122.404 158.809 127.006 153.767 124.176L150.703 122.445C145.662 119.615 145.442 110.41 150.223 101.893C155.003 93.3752 162.972 88.7729 168.014 91.603L171.077 93.334V93.334Z" fill="white" stroke="#1B1B1B" stroke-miterlimit="10"/>
<path d="M153.754 124.176C148.712 121.346 148.492 112.142 153.273 103.624C158.054 95.1062 166.022 90.5039 171.064 93.334" stroke="#1B1B1B" stroke-width="0.25" stroke-miterlimit="10"/>
<path d="M166.159 98.0049L146.761 87.1105V78.9363L88.992 46.4181L81.3948 50.4022L68.8381 43.3408L40.2078 58.3566V96.2189L52.3111 103.019H52.3661C52.1051 105.891 52.8881 108.281 54.7153 109.311L111.852 141.472C113.693 142.503 116.166 141.926 118.488 140.181L137.529 150.869L166.159 135.854V97.9912V98.0049Z" fill="white" stroke="#1B1B1B" stroke-miterlimit="10"/>
<path d="M137.543 150.883V113.007L166.159 98.005" stroke="#1B1B1B" stroke-width="0.25" stroke-miterlimit="10"/>
<path d="M118.982 140.456V102.594L147.612 87.5778" stroke="#1B1B1B" stroke-width="0.5" stroke-miterlimit="10"/>
<path d="M58.0399 92.235V71.7377" stroke="#1B1B1B" stroke-width="0.5" stroke-miterlimit="10"/>
<path d="M58.0399 71.7376V67.7673L67.4093 62.8627" stroke="#1B1B1B" stroke-width="0.25" stroke-miterlimit="10"/>
<path d="M115.808 104.256L122.719 100.629" stroke="#1B1B1B" stroke-width="0.25" stroke-miterlimit="10"/>
<path d="M118.982 102.594L137.542 113.007" stroke="#1B1B1B" stroke-width="0.25" stroke-miterlimit="10"/>
<path d="M40.2078 58.343L58.0399 67.7674" stroke="#1B1B1B" stroke-width="0.25" stroke-miterlimit="10"/>
<path d="M146.761 78.9364L129.011 88.2371" stroke="#1B1B1B" stroke-width="0.25" stroke-miterlimit="10"/>
<path d="M118.982 120.618L65.3211 90.4078C62.23 88.6768 57.353 91.4932 54.4268 96.7137C53.2315 98.8431 52.5446 101.041 52.366 103.019" stroke="#1B1B1B" stroke-width="0.5" stroke-miterlimit="10"/>
<path d="M81.3947 50.3885L71.2285 55.7189L64.9501 68.1107L58.0399 71.7376" stroke="#1B1B1B" stroke-width="0.5" stroke-miterlimit="10"/>
<path d="M111.866 141.472C108.775 139.741 108.651 134.109 111.577 128.888C113.542 125.385 116.386 122.967 118.982 122.28" stroke="#1B1B1B" stroke-width="0.25" stroke-miterlimit="10"/>
<path d="M129.011 88.2371L122.719 100.629L64.95 68.1107" stroke="#1B1B1B" stroke-width="0.25" stroke-miterlimit="10"/>
<path d="M71.2283 55.719L129.011 88.2372" stroke="#1B1B1B" stroke-width="0.25" stroke-miterlimit="10"/>
<path d="M58.0399 71.7377L115.809 104.256V118.832" stroke="#1B1B1B" stroke-width="0.25" stroke-miterlimit="10"/>
<path d="M146.761 87.1106V88.031" stroke="#1B1B1B" stroke-width="0.25" stroke-miterlimit="10"/>
<path d="M151.157 75.7079V60.9668L91.7671 27.5557L89.2531 28.8745V43.6018L148.643 77.013L151.157 75.7079Z" fill="white" stroke="#1B1B1B" stroke-miterlimit="10"/>
<path d="M148.643 62.2857L151.157 60.9668" stroke="#1B1B1B" stroke-width="0.25" stroke-miterlimit="10"/>
<path d="M89.2533 28.8745L148.643 62.2857" stroke="#1B1B1B" stroke-width="0.25" stroke-miterlimit="10"/>
<path d="M148.643 77.013V62.2857" stroke="#1B1B1B" stroke-width="0.25" stroke-miterlimit="10"/>
<path d="M100.875 52.8752L101.095 35.7163L94.0476 31.7597L91.8495 32.8999L91.6296 50.0726L98.6773 54.0292L100.875 52.8752Z" fill="white" stroke="#1B1B1B" stroke-miterlimit="10"/>
<path d="M98.8973 36.8565L101.095 35.7162" stroke="#1B1B1B" stroke-width="0.25" stroke-miterlimit="10"/>
<path d="M91.8497 32.8999L98.8973 36.8565" stroke="#1B1B1B" stroke-width="0.25" stroke-miterlimit="10"/>
<path d="M98.6772 54.0291L98.897 36.8564" stroke="#1B1B1B" stroke-width="0.25" stroke-miterlimit="10"/>
<path d="M52.105 59.3734L46.8845 56.6807V9.98475L64.0022 1L74.402 6.35788V11.3998L69.2227 14.1062V50.3886L52.105 59.3734Z" fill="white" stroke="#1B1B1B" stroke-miterlimit="10"/>
<path d="M57.2838 15.3426L74.4015 6.35788" stroke="#1B1B1B" stroke-width="0.25" stroke-miterlimit="10"/>
<path d="M46.8842 9.98483L57.284 15.3427" stroke="#1B1B1B" stroke-width="0.25" stroke-miterlimit="10"/>
<path d="M57.2838 20.3708V15.3426" stroke="#1B1B1B" stroke-width="0.25" stroke-miterlimit="10"/>
<path d="M52.0769 59.7444V17.6919L57.2837 20.3708L69.2221 14.1062" stroke="#1B1B1B" stroke-width="0.25" stroke-miterlimit="10"/>
<path d="M157.064 100.162V52.9988L146.664 47.641L129.547 56.6257V61.8187L135.069 64.4977V106.633L139.946 109.147L157.064 100.162Z" fill="white" stroke="#1B1B1B" stroke-miterlimit="10"/>
<path d="M139.946 61.9836L157.064 52.9988" stroke="#1B1B1B" stroke-width="0.25" stroke-miterlimit="10"/>
<path d="M129.547 56.6257L139.946 61.9836" stroke="#1B1B1B" stroke-width="0.25" stroke-miterlimit="10"/>
<path d="M139.946 109.147V61.9835" stroke="#1B1B1B" stroke-width="0.25" stroke-miterlimit="10"/>
<path d="M64.3456 17.417L62.5871 18.3374V55.2381C62.5871 55.7739 62.9855 56.1998 63.4663 56.1998C63.9472 56.1998 64.3456 55.7601 64.3456 55.2381V17.417V17.417Z" fill="white" stroke="#1B1B1B" stroke-width="0.7" stroke-miterlimit="10"/>
<path d="M133.298 64.0168L131.539 63.165V102.594C131.539 103.129 131.937 103.555 132.418 103.555C132.899 103.555 133.298 103.116 133.298 102.594V64.0168V64.0168Z" fill="white" stroke="#1B1B1B" stroke-width="0.7" stroke-miterlimit="10"/>
<path d="M68.3162 15.3425L66.5577 16.263V53.5071C66.5577 54.0429 66.9561 54.4688 67.437 54.4688C67.9178 54.4688 68.3162 54.0292 68.3162 53.5071V15.3425V15.3425Z" fill="white" stroke="#1B1B1B" stroke-width="0.7" stroke-miterlimit="10"/>
<path d="M60.3892 19.4915L58.6307 20.2608V56.9692C58.6307 57.5049 59.0291 57.9308 59.5099 57.9308C59.9908 57.9308 60.3892 57.4912 60.3892 56.9692V19.4915V19.4915Z" fill="white" stroke="#1B1B1B" stroke-width="0.7" stroke-miterlimit="10"/>
</svg>
