<svg width="201" height="174" viewBox="0 0 201 174" fill="none" xmlns="http://www.w3.org/2000/svg">
<path opacity="0.8" d="M200.12 136.785L130.137 173.425L0.119629 100.104L40.1664 79.1122L70.1018 63.4095L200.12 136.785Z" fill="#B3B3B3"/>
<path d="M171.077 93.1523C176.119 95.9824 176.339 105.187 171.558 113.705C166.777 122.222 158.809 126.825 153.767 123.994L150.704 122.263C145.662 119.433 145.442 110.229 150.223 101.711C155.004 93.1935 162.972 88.5913 168.014 91.4213L171.077 93.1523Z" fill="#3D3D40" stroke="#1B1B1B" stroke-miterlimit="10"/>
<path d="M153.754 123.994C148.712 121.164 148.492 111.96 153.273 103.442C158.054 94.9246 166.022 90.3223 171.064 93.1523" stroke="#1B1B1B" stroke-width="0.25" stroke-miterlimit="10"/>
<path d="M166.159 97.8233L146.761 86.9289V78.7547L88.9922 46.2365L81.395 50.2206L68.8383 43.1592L40.208 58.175V96.0373L52.3113 102.838H52.3663C52.1053 105.709 52.8883 108.099 54.7155 109.13L111.852 141.291C113.693 142.321 116.166 141.744 118.488 139.999L137.529 150.688L166.159 135.672V97.8096V97.8233Z" fill="#3D3D40" stroke="#1B1B1B" stroke-miterlimit="10"/>
<path d="M137.543 150.702V112.825L166.159 97.8234" stroke="#1B1B1B" stroke-width="0.25" stroke-miterlimit="10"/>
<path d="M118.982 140.274V102.412L147.612 87.3961" stroke="#1B1B1B" stroke-width="0.5" stroke-miterlimit="10"/>
<path d="M58.04 92.0534V71.556" stroke="#1B1B1B" stroke-width="0.5" stroke-miterlimit="10"/>
<path d="M58.04 71.5559V67.5856L67.4095 62.6811" stroke="#1B1B1B" stroke-width="0.25" stroke-miterlimit="10"/>
<path d="M115.809 104.074L122.719 100.447" stroke="#1B1B1B" stroke-width="0.25" stroke-miterlimit="10"/>
<path d="M118.982 102.412L137.542 112.825" stroke="#1B1B1B" stroke-width="0.25" stroke-miterlimit="10"/>
<path d="M40.208 58.1614L58.0401 67.5857" stroke="#1B1B1B" stroke-width="0.25" stroke-miterlimit="10"/>
<path d="M146.761 78.7548L129.011 88.0555" stroke="#1B1B1B" stroke-width="0.25" stroke-miterlimit="10"/>
<path d="M118.982 120.436L65.3213 90.2262C62.2302 88.4952 57.3532 91.3115 54.4269 96.532C53.2317 98.6614 52.5448 100.86 52.3662 102.838" stroke="#1B1B1B" stroke-width="0.5" stroke-miterlimit="10"/>
<path d="M81.3949 50.2068L71.2287 55.5373L64.9503 67.9291L58.04 71.5559" stroke="#1B1B1B" stroke-width="0.5" stroke-miterlimit="10"/>
<path d="M111.866 141.291C108.775 139.56 108.651 133.927 111.578 128.707C113.542 125.203 116.386 122.785 118.982 122.099" stroke="#1B1B1B" stroke-width="0.25" stroke-miterlimit="10"/>
<path d="M129.011 88.0555L122.719 100.447L64.9501 67.9291" stroke="#1B1B1B" stroke-width="0.25" stroke-miterlimit="10"/>
<path d="M71.2285 55.5373L129.011 88.0555" stroke="#1B1B1B" stroke-width="0.25" stroke-miterlimit="10"/>
<path d="M58.04 71.556L115.809 104.074V118.65" stroke="#1B1B1B" stroke-width="0.25" stroke-miterlimit="10"/>
<path d="M146.761 86.9289V87.8493" stroke="#1B1B1B" stroke-width="0.25" stroke-miterlimit="10"/>
<path d="M151.157 75.5262V60.7852L91.7672 27.374L89.2532 28.6929V43.4202L148.643 76.8314L151.157 75.5262Z" fill="#3D3D40" stroke="#1B1B1B" stroke-miterlimit="10"/>
<path d="M148.643 62.104L151.158 60.7852" stroke="#1B1B1B" stroke-width="0.25" stroke-miterlimit="10"/>
<path d="M89.2534 28.6929L148.643 62.1041" stroke="#1B1B1B" stroke-width="0.25" stroke-miterlimit="10"/>
<path d="M148.643 76.8314V62.1041" stroke="#1B1B1B" stroke-width="0.25" stroke-miterlimit="10"/>
<path d="M100.876 52.6935L101.095 35.5346L94.0477 31.578L91.8496 32.7183L91.6298 49.891L98.6774 53.8475L100.876 52.6935Z" fill="#3D3D40" stroke="#1B1B1B" stroke-miterlimit="10"/>
<path d="M98.8975 36.6749L101.096 35.5346" stroke="#1B1B1B" stroke-width="0.25" stroke-miterlimit="10"/>
<path d="M91.8499 32.7182L98.8975 36.6748" stroke="#1B1B1B" stroke-width="0.25" stroke-miterlimit="10"/>
<path d="M98.6772 53.8474L98.8971 36.6747" stroke="#1B1B1B" stroke-width="0.25" stroke-miterlimit="10"/>
<path d="M52.105 59.1918L46.8845 56.4991V9.80311L64.0022 0.818359L74.402 6.17624V11.2181L69.2227 13.9246V50.207L52.105 59.1918Z" fill="#3D3D40" stroke="#1B1B1B" stroke-miterlimit="10"/>
<path d="M57.2838 15.161L74.4016 6.17627" stroke="#1B1B1B" stroke-width="0.25" stroke-miterlimit="10"/>
<path d="M46.8843 9.80316L57.284 15.161" stroke="#1B1B1B" stroke-width="0.25" stroke-miterlimit="10"/>
<path d="M57.2838 20.1891V15.1609" stroke="#1B1B1B" stroke-width="0.25" stroke-miterlimit="10"/>
<path d="M52.0769 59.5628V17.5103L57.2837 20.1892L69.2221 13.9246" stroke="#1B1B1B" stroke-width="0.25" stroke-miterlimit="10"/>
<path d="M157.064 99.9802V52.8172L146.664 47.4593L129.547 56.444V61.6371L135.069 64.316V106.451L139.946 108.965L157.064 99.9802Z" fill="#3D3D40" stroke="#1B1B1B" stroke-miterlimit="10"/>
<path d="M139.946 61.8019L157.064 52.8171" stroke="#1B1B1B" stroke-width="0.25" stroke-miterlimit="10"/>
<path d="M129.547 56.4441L139.946 61.802" stroke="#1B1B1B" stroke-width="0.25" stroke-miterlimit="10"/>
<path d="M139.946 108.965V61.8019" stroke="#1B1B1B" stroke-width="0.25" stroke-miterlimit="10"/>
<path d="M64.3458 17.2353L62.5873 18.1557V55.0564C62.5873 55.5922 62.9857 56.0181 63.4665 56.0181C63.9474 56.0181 64.3458 55.5785 64.3458 55.0564V17.2353Z" fill="#3D3D40" stroke="#1B1B1B" stroke-width="0.7" stroke-miterlimit="10"/>
<path d="M133.298 63.8352L131.539 62.9834V102.412C131.539 102.948 131.938 103.374 132.418 103.374C132.899 103.374 133.298 102.934 133.298 102.412V63.8352Z" fill="#3D3D40" stroke="#1B1B1B" stroke-width="0.7" stroke-miterlimit="10"/>
<path d="M68.3163 15.1609L66.5579 16.0813V53.3255C66.5579 53.8613 66.9563 54.2871 67.4371 54.2871C67.9179 54.2871 68.3163 53.8475 68.3163 53.3255V15.1609Z" fill="#3D3D40" stroke="#1B1B1B" stroke-width="0.7" stroke-miterlimit="10"/>
<path d="M60.3893 19.3098L58.6309 20.0792V56.7875C58.6309 57.3233 59.0293 57.7492 59.5101 57.7492C59.9909 57.7492 60.3893 57.3095 60.3893 56.7875V19.3098Z" fill="#3D3D40" stroke="#1B1B1B" stroke-width="0.7" stroke-miterlimit="10"/>
</svg>
